<svg xmlns="http://www.w3.org/2000/svg" width="59" height="234" fill="none" viewBox="0 0 59 234">
  <g class="crampons">
    <path stroke="white" stroke-linecap="round" stroke-width="9" d="M5.173 19.699 28.02 43.217" class="Line" />
    <path stroke="white" stroke-linecap="round" stroke-width="9" d="m5 78.494 22.847 23.518" class="Line" />
    <path stroke="white" stroke-linecap="round" stroke-width="9" d="m5.952 108.871 22.847 23.519" class="Line" />
    <path stroke="white" stroke-linecap="round" stroke-width="9" d="m5 137.289 22.847 23.518" class="Line" />
    <path stroke="white" stroke-linecap="round" stroke-width="9" d="m5 166.687 22.847 23.518" class="Line" />
    <path stroke="white" stroke-linecap="round" stroke-width="9" d="m52.851 151.988-23.1 23.254" class="Line" />
    <path stroke="white" stroke-linecap="round" stroke-width="9" d="m52.851 151.988-23.1 23.254" class="Line" />
    <path stroke="white" stroke-linecap="round" stroke-width="9" d="m51.9 93.193-23.101 23.254" class="Line" />
    <path stroke="white" stroke-linecap="round" stroke-width="9" d="m52.851 122.59-23.1 23.254" class="Line" />
    <path stroke="white" stroke-linecap="round" stroke-width="9" d="m52.851 63.795-23.1 23.254" class="Line" />
    <path stroke="white" stroke-linecap="round" stroke-width="9" d="m53.803 33.418-23.1 23.253" class="Line" />
    <path stroke="white" stroke-linecap="round" stroke-width="9" d="m52.851 5-23.1 23.254" class="Line" />
    <path stroke="white" stroke-linecap="round" stroke-width="9" d="m5 49.096 22.847 23.518" class="Line" />
    <path id="arrow" fill="#ffffff"
      d="M31.254 209.205a1.98 1.98 0 0 0-1.392.57c-.37.365-.577.86-.577 1.376v15.413l-5.171-5.112a1.98 1.98 0 0 0-1.377-.522c-.51.009-.997.213-1.357.57a1.933 1.933 0 0 0-.049 2.703l8.532 8.433a1.982 1.982 0 0 0 2.782 0l8.531-8.433a1.928 1.928 0 0 0 .05-2.8 1.97 1.97 0 0 0-1.426-.57 1.981 1.981 0 0 0-1.406.619l-5.171 5.112v-15.413a1.958 1.958 0 0 0-1.97-1.946Z"
      class="Vector" />
  </g>

  <style>
    #arrow {
      animation: upAndDown 1s infinite;
      transition: all cubic-bezier(0.175, 0.885, 0.32, 1.275);
    }

    @keyframes upAndDown {
      0% {
        transform: translateY(0);
      }

      50% {
        transform: translateY(-10px);
      }

      100% {
        transform: translateY(0);
      }
    }
  </style>

</svg>