<svg xmlns="http://www.w3.org/2000/svg" width="208" height="219" fill="none" viewBox="0 0 208 219">
  <path fill="#FEF5F5" fill-rule="evenodd" d="M94.683.757c27.766.825 55.207 7.34 75.86 25.932 21.778 19.604 39.371 46.682 37.289 75.924-1.995 28.042-27.779 45.688-47.378 65.827-20.034 20.585-37.116 48.616-65.771 50.439-29.547 1.88-56.174-18.389-74.701-41.502-16.688-20.818-17.502-48.093-18.5-74.764-1.055-28.246-6.38-59.73 12.694-80.575C33.663.741 65.84-.102 94.683.757Z" clip-rule="evenodd"/>
  <g filter="url(#a)">
    <path fill="#FEF5F5" fill-opacity=".171" fill-rule="evenodd" d="M94.683.757c27.766.825 55.207 7.34 75.86 25.932 21.778 19.604 39.371 46.682 37.289 75.924-1.995 28.042-27.779 45.688-47.378 65.827-20.034 20.585-37.116 48.616-65.771 50.439-29.547 1.88-56.174-18.389-74.701-41.502-16.688-20.818-17.502-48.093-18.5-74.764-1.055-28.246-6.38-59.73 12.694-80.575C33.663.741 65.84-.102 94.683.757Z" clip-rule="evenodd"/>
  </g>
  <g clip-path="url(#b)">
    <path fill="#2E2F5E" d="M72.08 101.972v11.007h-5.578v-9.931c0-1.158-.337-1.489-.844-1.489-.592 0-1.268.496-1.86 1.489v9.931h-5.577v-20.69l5.578-.579v7.78c1.267-1.325 2.535-1.904 4.224-1.904 2.535-.083 4.056 1.573 4.056 4.386Zm16.224 5.131h-9.042c.338 2.152 1.352 2.483 3.042 2.483 1.099 0 2.112-.414 3.38-1.324l2.282 3.062c-1.69 1.407-3.972 2.235-6.169 2.235-5.492 0-8.112-3.394-8.112-7.945 0-4.386 2.535-8.028 7.52-8.028 4.395 0 7.352 2.814 7.352 7.779-.085.414-.169 1.159-.254 1.738Zm-5.324-3.31c0-1.49-.338-2.731-1.775-2.731-1.183 0-1.774.662-2.028 2.979h3.803v-.248Zm6.844 4.883v-16.47l5.578-.578v16.8c0 .496.253.744.675.744.17 0 .423 0 .592-.165l1.014 3.89a9.753 9.753 0 0 1-3.042.496c-3.127.166-4.817-1.655-4.817-4.717Zm8.45 0v-16.47l5.577-.578v16.8c0 .496.254.744.676.744.169 0 .423 0 .592-.165l1.014 3.89a9.753 9.753 0 0 1-3.042.496c-3.126.166-4.816-1.655-4.816-4.717Zm23.069-3.145c0 4.883-2.958 7.945-7.774 7.945-4.732 0-7.774-2.814-7.774-8.028 0-4.883 2.957-7.945 7.774-7.945 4.732 0 7.774 2.897 7.774 8.028Zm-9.718 0c0 2.979.592 4.055 2.029 4.055 1.352 0 2.027-1.158 2.027-4.055 0-2.979-.591-4.055-2.027-4.055-1.437 0-2.113 1.241-2.029 4.055Zm25.266 4.386-1.098 3.559c-1.944-.166-3.212-.662-4.057-2.069-1.098 1.655-2.788 2.152-4.562 2.152-3.042 0-4.986-1.987-4.986-4.718 0-3.31 2.535-5.131 7.267-5.131h1.099v-.413c0-1.49-.508-1.904-2.198-1.904a15.364 15.364 0 0 0-3.886.745l-1.184-3.476a16.006 16.006 0 0 1 5.915-1.159c4.817 0 6.76 1.821 6.76 5.462v5.132c0 1.075.254 1.572.93 1.82Zm-6.337-1.158v-2.235h-.592c-1.605 0-2.282.497-2.282 1.655 0 .828.507 1.407 1.268 1.407.591.083 1.268-.248 1.606-.827Zm19.688-9.27-1.943 2.98c-1.099-.662-2.282-1.076-3.549-1.076-.93 0-1.268.248-1.268.662 0 .497.169.745 3.042 1.573 2.873.91 4.394 2.069 4.394 4.8 0 3.062-2.957 5.131-7.098 5.131-2.619 0-5.07-.911-6.591-2.4l2.62-2.897c1.098.828 2.45 1.49 3.802 1.49 1.014 0 1.605-.331 1.605-.911 0-.744-.337-.91-2.872-1.655-2.789-.827-4.394-2.4-4.394-4.8 0-2.648 2.366-4.8 6.506-4.8 2.197-.083 4.394.662 5.746 1.904Zm13.943 0-1.944 2.98c-1.098-.662-2.281-1.076-3.549-1.076-.929 0-1.267.248-1.267.662 0 .497.168.745 3.042 1.573 2.873.91 4.393 2.069 4.393 4.8 0 3.062-2.957 5.131-7.097 5.131-2.62 0-5.071-.911-6.592-2.4l2.62-2.897c1.099.828 2.451 1.49 3.803 1.49 1.014 0 1.605-.331 1.605-.911 0-.744-.338-.91-2.873-1.655-2.788-.827-4.394-2.4-4.394-4.8 0-2.648 2.366-4.8 6.507-4.8 2.197-.083 4.309.662 5.746 1.904ZM181 105.532c0 4.883-2.957 7.945-7.774 7.945-4.732 0-7.774-2.814-7.774-8.028 0-4.883 2.958-7.945 7.774-7.945 4.732 0 7.774 2.897 7.774 8.028Zm-9.717 0c0 2.979.591 4.055 2.027 4.055 1.352 0 2.029-1.158 2.029-4.055 0-2.979-.592-4.055-2.029-4.055-1.436 0-2.112 1.241-2.027 4.055Z"/>
    <path fill="url(#c)" d="M22.9 114.883c-5.576-6.29-1.858-22.18.508-22.18-4.564-.165-12.338 2.814-11.239 13.49 1.268 9.931 10.393 16.883 20.364 15.642 3.212-.414 6.169-1.656 8.704-3.559-8.788 6.207-14.703.662-18.337-3.393Z"/>
    <path fill="url(#d)" d="M43.434 104.124C38.786 113.31 24.506 117.2 22.901 114.8c2.788 4.055 9.717 9.6 18.42 3.31 7.944-6.041 9.38-17.379 3.212-25.241-1.944-2.483-4.564-4.386-7.521-5.628 9.886 4.387 8.873 12.083 6.422 16.883Z"/>
    <path fill="url(#e)" d="M23.407 92.703c10.056-1.075 21.463 9.104 20.027 11.504 2.788-4.8 3.465-12.497-6.337-16.883-9.38-3.724-20.027.745-23.745 10.014-1.183 2.896-1.606 6.041-1.183 9.103-.676-10.593 7.52-13.407 11.238-13.738Z"/>
  </g>
  <defs>
    <linearGradient id="c" x1="15.652" x2="31.988" y1="95.174" y2="123.735" gradientUnits="userSpaceOnUse">
      <stop stop-color="#498A63"/>
      <stop offset=".25" stop-color="#61B984"/>
    </linearGradient>
    <linearGradient id="d" x1="28.806" x2="45.725" y1="120.021" y2="92.337" gradientUnits="userSpaceOnUse">
      <stop stop-color="#89356D"/>
      <stop offset=".21" stop-color="#B94794"/>
    </linearGradient>
    <linearGradient id="e" x1="14.739" x2="43.706" y1="93.41" y2="104.055" gradientUnits="userSpaceOnUse">
      <stop offset=".6" stop-color="#F59C1C"/>
      <stop offset="1" stop-color="#C7702B"/>
    </linearGradient>
    <clipPath id="b">
      <path fill="#fff" d="M0 0h169v36H0z" transform="translate(12 86)"/>
    </clipPath>
    <filter id="a" width="290.688" height="301.14" x="-41.344" y="-40.796" color-interpolation-filters="sRGB" filterUnits="userSpaceOnUse">
      <feFlood flood-opacity="0" result="BackgroundImageFix"/>
      <feGaussianBlur in="BackgroundImageFix" stdDeviation="20.672"/>
      <feComposite in2="SourceAlpha" operator="in" result="effect1_backgroundBlur_41_8"/>
      <feBlend in="SourceGraphic" in2="effect1_backgroundBlur_41_8" result="shape"/>
      <feColorMatrix in="SourceAlpha" result="hardAlpha" values="0 0 0 0 0 0 0 0 0 0 0 0 0 0 0 0 0 0 127 0"/>
      <feOffset dx="-2.72" dy="2.72"/>
      <feGaussianBlur stdDeviation="1.36"/>
      <feComposite in2="hardAlpha" k2="-1" k3="1" operator="arithmetic"/>
      <feColorMatrix values="0 0 0 0 1 0 0 0 0 1 0 0 0 0 1 0 0 0 0.542 0"/>
      <feBlend in2="shape" result="effect2_innerShadow_41_8"/>
      <feColorMatrix in="SourceAlpha" result="hardAlpha" values="0 0 0 0 0 0 0 0 0 0 0 0 0 0 0 0 0 0 127 0"/>
      <feOffset dx="2.72" dy="-2.72"/>
      <feGaussianBlur stdDeviation="1.36"/>
      <feComposite in2="hardAlpha" k2="-1" k3="1" operator="arithmetic"/>
      <feColorMatrix values="0 0 0 0 0.8365 0 0 0 0 0.808617 0 0 0 0 0.808617 0 0 0 0.542 0"/>
      <feBlend in2="effect2_innerShadow_41_8" result="effect3_innerShadow_41_8"/>
    </filter>
  </defs>
</svg>
