<svg xmlns="http://www.w3.org/2000/svg" width="208" height="219" fill="none" viewBox="0 0 208 219">
  <path fill="#FEF5F5" fill-rule="evenodd" d="M94.683.757c27.766.825 55.207 7.34 75.86 25.932 21.778 19.604 39.371 46.682 37.289 75.924-1.995 28.042-27.779 45.688-47.378 65.827-20.034 20.585-37.116 48.616-65.771 50.439-29.547 1.88-56.174-18.389-74.701-41.502-16.688-20.818-17.502-48.093-18.5-74.764-1.055-28.246-6.38-59.73 12.694-80.575C33.663.741 65.84-.102 94.683.757Z" clip-rule="evenodd"/>
  <g filter="url(#a)">
    <path fill="#FEF5F5" fill-opacity=".171" fill-rule="evenodd" d="M94.683.757c27.766.825 55.207 7.34 75.86 25.932 21.778 19.604 39.371 46.682 37.289 75.924-1.995 28.042-27.779 45.688-47.378 65.827-20.034 20.585-37.116 48.616-65.771 50.439-29.547 1.88-56.174-18.389-74.701-41.502-16.688-20.818-17.502-48.093-18.5-74.764-1.055-28.246-6.38-59.73 12.694-80.575C33.663.741 65.84-.102 94.683.757Z" clip-rule="evenodd"/>
  </g>
  <g clip-path="url(#b)">
    <path fill="url(#c)" d="M115.953 63H75.047C65.08 63 57 71.08 57 81.047v40.906C57 131.92 65.08 140 75.047 140h40.906c9.967 0 18.047-8.08 18.047-18.047V81.047C134 71.08 125.92 63 115.953 63Z"/>
    <path fill="url(#d)" d="M115.953 63H75.047C65.08 63 57 71.08 57 81.047v40.906C57 131.92 65.08 140 75.047 140h40.906c9.967 0 18.047-8.08 18.047-18.047V81.047C134 71.08 125.92 63 115.953 63Z"/>
    <path fill="#fff" d="M95.503 71.422c-8.169 0-9.194.036-12.402.181-3.203.147-5.388.654-7.3 1.398-1.98.768-3.657 1.796-5.329 3.468-1.673 1.672-2.701 3.35-3.472 5.328-.746 1.913-1.253 4.1-1.397 7.3-.143 3.209-.181 4.234-.181 12.403s.036 9.191.181 12.399c.148 3.203.655 5.388 1.398 7.301.769 1.978 1.796 3.656 3.469 5.328 1.671 1.673 3.35 2.703 5.326 3.472 1.914.743 4.1 1.25 7.302 1.397 3.208.146 4.233.182 12.401.182 8.17 0 9.192-.036 12.4-.182 3.202-.147 5.39-.654 7.304-1.397 1.978-.769 3.653-1.799 5.324-3.472 1.674-1.672 2.701-3.35 3.472-5.327.739-1.914 1.247-4.1 1.397-7.301.145-3.208.182-4.231.182-12.4s-.037-9.194-.182-12.402c-.15-3.202-.658-5.388-1.397-7.3-.771-1.979-1.798-3.657-3.472-5.329-1.673-1.673-3.346-2.7-5.326-3.468-1.917-.744-4.104-1.251-7.306-1.398-3.209-.145-4.23-.181-12.402-.181h.01Zm-2.699 5.42h2.699c8.031 0 8.983.03 12.154.173 2.933.134 4.524.624 5.585 1.036 1.403.545 2.404 1.197 3.456 2.25 1.053 1.053 1.704 2.055 2.251 3.459.412 1.059.902 2.65 1.036 5.583.144 3.17.175 4.123.175 12.15 0 8.028-.031 8.98-.175 12.151-.134 2.932-.624 4.524-1.036 5.583-.545 1.404-1.198 2.403-2.251 3.456-1.053 1.052-2.052 1.704-3.456 2.249-1.059.414-2.652.902-5.585 1.037-3.171.144-4.123.175-12.154.175-8.032 0-8.984-.031-12.154-.175-2.933-.136-4.525-.626-5.586-1.038-1.403-.545-2.406-1.196-3.459-2.249-1.053-1.053-1.704-2.053-2.25-3.457-.412-1.059-.903-2.651-1.036-5.584-.144-3.17-.173-4.123-.173-12.155s.029-8.98.173-12.15c.134-2.933.624-4.525 1.035-5.585.546-1.404 1.198-2.406 2.252-3.46 1.052-1.052 2.055-1.704 3.458-2.25 1.06-.413 2.653-.902 5.586-1.037 2.774-.125 3.85-.163 9.455-.17v.008Zm18.754 4.994a3.61 3.61 0 1 0 0 7.221 3.61 3.61 0 0 0 0-7.222v.001Zm-16.055 4.218c-8.53 0-15.447 6.916-15.447 15.446 0 8.531 6.916 15.444 15.447 15.444 8.53 0 15.444-6.913 15.444-15.444 0-8.53-6.914-15.446-15.445-15.446Zm0 5.42c5.537 0 10.026 4.489 10.026 10.026s-4.489 10.027-10.026 10.027c-5.538 0-10.026-4.49-10.026-10.027 0-5.537 4.488-10.026 10.026-10.026Z"/>
  </g>
  <defs>
    <radialGradient id="c" cx="0" cy="0" r="1" gradientTransform="matrix(0 -76.3127 70.9769 0 77.453 145.931)" gradientUnits="userSpaceOnUse">
      <stop stop-color="#FD5"/>
      <stop offset=".1" stop-color="#FD5"/>
      <stop offset=".5" stop-color="#FF543E"/>
      <stop offset="1" stop-color="#C837AB"/>
    </radialGradient>
    <radialGradient id="d" cx="0" cy="0" r="1" gradientTransform="matrix(6.69525 33.4487 -137.87704 27.5981 44.102 68.547)" gradientUnits="userSpaceOnUse">
      <stop stop-color="#3771C8"/>
      <stop offset=".128" stop-color="#3771C8"/>
      <stop offset="1" stop-color="#60F" stop-opacity="0"/>
    </radialGradient>
    <clipPath id="b">
      <path fill="#fff" d="M0 0h77v77H0z" transform="translate(57 63)"/>
    </clipPath>
    <filter id="a" width="290.688" height="301.14" x="-41.344" y="-40.796" color-interpolation-filters="sRGB" filterUnits="userSpaceOnUse">
      <feFlood flood-opacity="0" result="BackgroundImageFix"/>
      <feGaussianBlur in="BackgroundImageFix" stdDeviation="20.672"/>
      <feComposite in2="SourceAlpha" operator="in" result="effect1_backgroundBlur_41_8"/>
      <feBlend in="SourceGraphic" in2="effect1_backgroundBlur_41_8" result="shape"/>
      <feColorMatrix in="SourceAlpha" result="hardAlpha" values="0 0 0 0 0 0 0 0 0 0 0 0 0 0 0 0 0 0 127 0"/>
      <feOffset dx="-2.72" dy="2.72"/>
      <feGaussianBlur stdDeviation="1.36"/>
      <feComposite in2="hardAlpha" k2="-1" k3="1" operator="arithmetic"/>
      <feColorMatrix values="0 0 0 0 1 0 0 0 0 1 0 0 0 0 1 0 0 0 0.542 0"/>
      <feBlend in2="shape" result="effect2_innerShadow_41_8"/>
      <feColorMatrix in="SourceAlpha" result="hardAlpha" values="0 0 0 0 0 0 0 0 0 0 0 0 0 0 0 0 0 0 127 0"/>
      <feOffset dx="2.72" dy="-2.72"/>
      <feGaussianBlur stdDeviation="1.36"/>
      <feComposite in2="hardAlpha" k2="-1" k3="1" operator="arithmetic"/>
      <feColorMatrix values="0 0 0 0 0.8365 0 0 0 0 0.808617 0 0 0 0 0.808617 0 0 0 0.542 0"/>
      <feBlend in2="effect2_innerShadow_41_8" result="effect3_innerShadow_41_8"/>
    </filter>
  </defs>
</svg>
