<svg xmlns="http://www.w3.org/2000/svg" width="183" height="162" fill="none" viewBox="0 0 183 162">
  <g class="panneauxbosses 1" clip-path="url(#a)">
    <path fill="#000"
      d="M46.193 134.445h-.026v-12.818a10.73 10.73 0 0 0 9.94-6.721c2.048-5.063 6.88-8.432 12.316-8.588a13.713 13.713 0 0 1 12.785 7.866 11.117 11.117 0 0 0 9 6.33h2.582a11.12 11.12 0 0 0 9-6.33 13.71 13.71 0 0 1 12.784-7.866c5.437.156 10.268 3.525 12.316 8.588a10.731 10.731 0 0 0 9.94 6.721v12.818H46.193Z"
      class="path12" />
    <g class="biker" clip-path="url(#b)">
      <path stroke="#000000" stroke-linecap="round" stroke-linejoin="round" stroke-width="2"
        d="M79.955 96.072a3.792 3.792 0 1 0-3.306-6.825 3.792 3.792 0 0 0 3.306 6.825Zm-12.675 6.139a3.791 3.791 0 1 0-3.305-6.824 3.791 3.791 0 0 0 3.305 6.824ZM69.458 83.1a1.083 1.083 0 1 0-.944-1.95 1.083 1.083 0 0 0 .944 1.95Zm2.506 12.63-1.653-3.413-4.342-1.508 2.484-4.814 3.366 1.98 1.95-.944"
        class="Vector" />
    </g>
  </g>
  <style>
    .biker {
      animation: biker 3s linear infinite;
      transform-origin: 50% 50%;
      scale: 1.2;
    }

    svg {
      overflow: hidden;
    }

    @keyframes biker {
      0% {
        transform: translate(0, 0);
        /* Position de départ du vélo */
      }

      50% {
        transform: translate(30px, -5px) rotateX(180deg) skewX(20deg);
        /* Déplacement vers la droite et saut vers le haut */
      }

      100% {
        transform: translate(60px, 30px) rotate(45deg);
        /* Point le plus haut du saut, continuer vers la droite */
      }
    }
  </style>
</svg>