<svg xmlns="http://www.w3.org/2000/svg" width="94" height="161" fill="none" viewBox="0 0 94 161">
  <g class="virages">
    <path fill="#000"
      d="M93.205 21.084 78.914 0 65.962 21.084V81.92L36.408 58.88a20.137 20.137 0 0 0-22.515-7.271A20.153 20.153 0 0 0 0 70.769v89.85l12.812-17.32 14.431 17.32v-74.33l34.541 26.931a19.453 19.453 0 0 0 20.503 2.136 19.471 19.471 0 0 0 10.917-17.494V21.084h.001Z"
      class="path12" />
    <g class="biker" clip-path="url(#a)">
      <path stroke="#fff" stroke-linecap="round" stroke-linejoin="round" stroke-width="2"
        d="M22.09 77.452a3.021 3.021 0 1 0-2.528-5.489 3.021 3.021 0 0 0 2.528 5.489Zm-10.193 4.695a3.021 3.021 0 1 0-2.528-5.489 3.021 3.021 0 0 0 2.528 5.489Zm2.031-15.192a.863.863 0 1 0-.723-1.568.863.863 0 0 0 .723 1.568Zm1.801 10.1-1.264-2.744-3.436-1.269 2.053-3.797 2.652 1.63 1.568-.722"
        class="Vector" />
    </g>
  </g>
  <defs>
    <clipPath id="a" class="a">
      <path fill="#fff" d="M0 67.668h20.718v20.718H0z" transform="rotate(-24.732 0 67.668)" />
    </clipPath>
  </defs>
</svg>