<svg xmlns="http://www.w3.org/2000/svg" width="376" height="159" fill="none" viewBox="0 0 376 159">
  <g class="Frame 1">
    <g class="logo">
      <g class="Montagne" filter="url(#a)">
        <path fill="#151313" d="m31.435 86.027-3.523.504h-2.014l1.007-1.51 1.51-1.51L29.422 82l2.013-2.517 1.51-2.517 2.014-2.014 2.014-2.517 3.02-3.523 3.02-2.518 3.021-2.517 1.007-2.517 1.007-3.02 2.517-1.51 4.027-1.007h6.544c.403 0 1.175-1.007 1.51-1.51l1.51-2.517 1.51-3.02 4.028-2.518 4.53-1.006 4.531-1.007 3.524-2.014 3.524-4.027 5.034-5.537 2.517-3.524 3.523-2.014 3.021-.503 5.034.503c.839.671 2.618 2.114 3.02 2.517.403.403.839 1.846 1.007 2.517l2.014 2.517 2.517 1.51 4.027 2.518 4.027 4.027 1.007 1.51 2.517 1.51 1.51-1.007 5.034-5.537c.403 0 1.51-1.343 2.014-2.014l1.51-2.013 2.517-2.014 5.034-4.53 2.517-3.021 2.517-4.027 4.027-6.041 6.545-3.524L160 11.02l2.5-1.51 2.337-1.01a19.05 19.05 0 0 1 4.027 2.52l2.517 2.014 3.524 3.02 2.013 1.007 6.041 5.034 2.517 4.027 2.517 1.51 4.027 2.014 3.524 1.51 7.551 4.531 4.531 2.517 5.034 3.524 3.02 3.02 8.558 9.062c.671.503 2.215 1.61 3.021 2.013.805.403 1.678.168 2.013 0h2.014l1.51-.503 14.599-8.558h6.544l1.51 1.007 3.524 1.51 2.517 1.51 2.517 2.517 2.013 1.007 4.531 4.027 5.034 4.53 11.578 7.552 5.034 4.53 11.075 9.565 4.531 3.02 2.517 2.517h-1.007l-2.517-.503-4.531-.503-6.544-2.517L287.667 82l-4.028-3.524-4.53-3.02-4.531-2.517-2.517-1.51-2.013-2.517-2.517-3.02-3.524-2.014-4.531-3.524-3.524-4.027-3.523-3.02h-3.524l-3.021 1.006-1.51 2.014-1.51 2.013-2.517 2.014-3.02 2.013-3.524 2.517v5.538l1.51 2.013 2.014 4.531 2.517 4.027 3.02 5.034v1.51l-1.51-.503-1.51-1.007-3.021-2.013-3.524-2.517-2.013-1.51-2.014-3.524-1.51-3.02-3.02-5.538-1.511-3.02-1.51-1.51-3.02-2.014-1.511-2.014-2.517-1.51-1.51-2.014-2.013-2.014-.504-2.517-3.524-3.523-3.02-3.524-2.517-2.014-3.02-2.013-2.517-1.007h-1.511v1.007l1.511 1.51c.503.671 1.51 2.114 1.51 2.517 0 .503 1.007 1.51 1.007 2.014 0 .402 1.006 1.845 1.51 2.517l2.013 3.02 2.517 5.034 1.511 2.517 2.013 1.51c.839.671 2.517 2.114 2.517 2.517s.336.503.504.503v2.014h-1.007l-8.055-3.524-2.517-1.51-1.51-1.51-1.007-2.014-.503-4.027-11.578-14.095-1.007-2.014-1.51-3.524-1.51-3.02-3.021-3.02-3.02-2.517-2.014-1.007-1.007-1.51-1.51-3.524-2.517-3.02-3.02-3.021-1.51-1.007-1.511 1.007-1.006 1.51-2.517 1.51-2.014 2.517-2.014 2.517-1.51 3.02-1.007 4.028-1.51 3.02-2.517 2.014-2.517 1.51-3.02 1.51-3.021 2.014-5.034 5.034-2.517 3.02-2.013 3.02-.504 2.518 1.007 1.51 2.517 1.51c.671.168 2.114.504 2.517.504s.839-.336 1.007-.504l2.013-1.51 1.511-1.51 1.51-1.007 1.51-1.007h1.51l2.517-.503 1.51.503 1.511 1.007 2.517 1.51 3.524 2.517 1.51 1.51.503 1.51 1.007 2.014 3.02 2.517 3.524 3.02 2.014 2.014 2.517 3.02 2.013 3.525 1.007 2.517 1.51 2.013v1.51l-3.02-1.006-4.027-3.02-2.014-3.525-1.51-2.517-3.02-.503-3.524-2.014-3.021-2.517-3.524-3.02-3.02-2.517h-3.524l-3.524 1.007-4.027 1.51-3.02 3.02-1.51 1.51-2.014 3.524-2.517 1.51-.503 1.007-1.007 1.51v1.007l-.504 1.007-1.006 1.007-1.007 1.51-1.007 1.51-1.007 2.517-1.007 1.007-1.51.504-.503-1.51.503-1.51 1.007-1.511 1.51-2.517 1.51-3.524 1.511-3.02 1.006-3.02v-2.014l-1.006-2.517-1.511-2.517-1.51-3.02v-3.021l-2.013-3.02-5.034-5.035-2.014-2.517-2.517-.503-1.51-1.007-1.51-2.517-3.524-7.55-2.014-1.008h-2.013l-2.014 1.51-2.014 2.014-4.53 7.048-3.524 6.04-3.524 2.014h-3.524l-5.537.504-3.524 2.013-2.517 2.517-2.517 5.538-1.007 2.517.504 15.102v2.013l-.504 1.51-1.007-.503-1.006-1.51-1.007-2.014-.504-1.51-.503-2.013-.503-1.51V67.4l-.504-3.523-.503-1.007-1.007-1.51h-3.02l-1.007.503-1.51 2.517-1.51 2.517-2.014 2.517-3.02 3.02-4.028 3.524-2.517 3.02-4.027 4.028-2.014 2.013-2.517 1.007Z"/>
        <path stroke="#000" d="m31.435 86.027-3.523.504h-2.014l1.007-1.51 1.51-1.51L29.422 82l2.013-2.517 1.51-2.517 2.014-2.014 2.014-2.517 3.02-3.523 3.02-2.518 3.021-2.517 1.007-2.517 1.007-3.02 2.517-1.51 4.027-1.007h6.544c.403 0 1.175-1.007 1.51-1.51l1.51-2.517 1.51-3.02 4.028-2.518 4.53-1.006 4.531-1.007 3.524-2.014 3.524-4.027 5.034-5.537 2.517-3.524 3.523-2.014 3.021-.503 5.034.503c.839.671 2.618 2.114 3.02 2.517.403.403.839 1.846 1.007 2.517l2.014 2.517 2.517 1.51 4.027 2.518 4.027 4.027 1.007 1.51 2.517 1.51 1.51-1.007 5.034-5.537c.403 0 1.51-1.343 2.014-2.014l1.51-2.013 2.517-2.014 5.034-4.53 2.517-3.021 2.517-4.027 4.027-6.041 6.545-3.524L160 11.02l2.5-1.51 2.337-1.01a19.05 19.05 0 0 1 4.027 2.52l2.517 2.014 3.524 3.02 2.013 1.007 6.041 5.034 2.517 4.027 2.517 1.51 4.027 2.014 3.524 1.51 7.551 4.531 4.531 2.517 5.034 3.524 3.02 3.02 8.558 9.062c.671.503 2.215 1.61 3.021 2.013.805.403 1.678.168 2.013 0h2.014l1.51-.503 14.599-8.558h6.544l1.51 1.007 3.524 1.51 2.517 1.51 2.517 2.517 2.013 1.007 4.531 4.027 5.034 4.53 11.578 7.552 5.034 4.53 11.075 9.565 4.531 3.02 2.517 2.517h-1.007l-2.517-.503-4.531-.503-6.544-2.517L287.667 82l-4.028-3.524-4.53-3.02-4.531-2.517-2.517-1.51-2.013-2.517-2.517-3.02-3.524-2.014-4.531-3.524-3.524-4.027-3.523-3.02h-3.524l-3.021 1.006-1.51 2.014-1.51 2.013-2.517 2.014-3.02 2.013-3.524 2.517v5.538l1.51 2.013 2.014 4.531 2.517 4.027 3.02 5.034v1.51l-1.51-.503-1.51-1.007-3.021-2.013-3.524-2.517-2.013-1.51-2.014-3.524-1.51-3.02-3.02-5.538-1.511-3.02-1.51-1.51-3.02-2.014-1.511-2.014-2.517-1.51-1.51-2.014-2.013-2.014-.504-2.517-3.524-3.523-3.02-3.524-2.517-2.014-3.02-2.013-2.517-1.007h-1.511v1.007l1.511 1.51c.503.671 1.51 2.114 1.51 2.517 0 .503 1.007 1.51 1.007 2.014 0 .402 1.006 1.845 1.51 2.517l2.013 3.02 2.517 5.034 1.511 2.517 2.013 1.51c.839.671 2.517 2.114 2.517 2.517s.336.503.504.503v2.014h-1.007l-8.055-3.524-2.517-1.51-1.51-1.51-1.007-2.014-.503-4.027-11.578-14.095-1.007-2.014-1.51-3.524-1.51-3.02-3.021-3.02-3.02-2.517-2.014-1.007-1.007-1.51-1.51-3.524-2.517-3.02-3.02-3.021-1.51-1.007-1.511 1.007-1.006 1.51-2.517 1.51-2.014 2.517-2.014 2.517-1.51 3.02-1.007 4.028-1.51 3.02-2.517 2.014-2.517 1.51-3.02 1.51-3.021 2.014-5.034 5.034-2.517 3.02-2.013 3.02-.504 2.518 1.007 1.51 2.517 1.51c.671.168 2.114.504 2.517.504s.839-.336 1.007-.504l2.013-1.51 1.511-1.51 1.51-1.007 1.51-1.007h1.51l2.517-.503 1.51.503 1.511 1.007 2.517 1.51 3.524 2.517 1.51 1.51.503 1.51 1.007 2.014 3.02 2.517 3.524 3.02 2.014 2.014 2.517 3.02 2.013 3.525 1.007 2.517 1.51 2.013v1.51l-3.02-1.006-4.027-3.02-2.014-3.525-1.51-2.517-3.02-.503-3.524-2.014-3.021-2.517-3.524-3.02-3.02-2.517h-3.524l-3.524 1.007-4.027 1.51-3.02 3.02-1.51 1.51-2.014 3.524-2.517 1.51-.503 1.007-1.007 1.51v1.007l-.504 1.007-1.006 1.007-1.007 1.51-1.007 1.51-1.007 2.517-1.007 1.007-1.51.504-.503-1.51.503-1.51 1.007-1.511 1.51-2.517 1.51-3.524 1.511-3.02 1.006-3.02v-2.014l-1.006-2.517-1.511-2.517-1.51-3.02v-3.021l-2.013-3.02-5.034-5.035-2.014-2.517-2.517-.503-1.51-1.007-1.51-2.517-3.524-7.55-2.014-1.008h-2.013l-2.014 1.51-2.014 2.014-4.53 7.048-3.524 6.04-3.524 2.014h-3.524l-5.537.504-3.524 2.013-2.517 2.517-2.517 5.538-1.007 2.517.504 15.102v2.013l-.504 1.51-1.007-.503-1.006-1.51-1.007-2.014-.504-1.51-.503-2.013-.503-1.51V67.4l-.504-3.523-.503-1.007-1.007-1.51h-3.02l-1.007.503-1.51 2.517-1.51 2.517-2.014 2.517-3.02 3.02-4.028 3.524-2.517 3.02-4.027 4.028-2.014 2.013-2.517 1.007Z"/>
      </g>
      <path fill="#0F0303" d="M9.79 96.551a7 7 0 0 1 7-7h344.42a7 7 0 0 1 7 7v47.415a7 7 0 0 1-7 7H16.789a7 7 0 0 1-7-7V96.551Z" class="Rectangle 1"/>
      <g class="Text">
        <g class="Mont">
          <path fill="#fff" d="m49.319 103.467.16-1.52h-.08l-.768 1.376-1.632 2.736h-.4l-1.712-2.752-.736-1.36h-.08l.192 1.504v7.456h-1.296v-11.2h1.232l2.656 4.256h.032l2.56-4.256h1.2v11.2h-1.328v-7.44Zm4.394 3.44c0-1.29.336-2.309 1.008-3.056.672-.757 1.632-1.136 2.88-1.136.672 0 1.248.112 1.728.336.49.214.896.507 1.216.88.32.374.554.816.704 1.328a5.5 5.5 0 0 1 .24 1.648c0 .64-.086 1.222-.256 1.744-.171.512-.422.95-.752 1.312a3.38 3.38 0 0 1-1.232.848c-.48.192-1.03.288-1.648.288-.662 0-1.238-.106-1.728-.32a3.465 3.465 0 0 1-1.216-.896 3.713 3.713 0 0 1-.72-1.328 5.857 5.857 0 0 1-.224-1.648Zm1.328 0c0 .374.042.747.128 1.12.096.374.245.71.448 1.008.202.299.464.539.784.72.33.182.73.272 1.2.272.853 0 1.493-.261 1.92-.784.437-.533.656-1.312.656-2.336a4.36 4.36 0 0 0-.144-1.12 2.788 2.788 0 0 0-.448-1.008 2.28 2.28 0 0 0-.8-.72c-.32-.181-.715-.272-1.184-.272-.854 0-1.494.262-1.92.784-.427.523-.64 1.302-.64 2.336Zm10.041-1.2a5.17 5.17 0 0 0-.016-.368 7.192 7.192 0 0 0-.064-.976 3.792 3.792 0 0 0-.048-.416h-1.072v-1.04h2.144l.144 1.296h.08c.107-.181.246-.357.416-.528a3.19 3.19 0 0 1 .624-.48c.235-.149.496-.266.784-.352.288-.085.592-.128.912-.128.491 0 .923.054 1.296.16.384.107.699.299.944.576.256.267.448.635.576 1.104.128.459.192 1.046.192 1.76v4.592h-1.248v-4.352c0-.885-.144-1.552-.432-2-.288-.448-.81-.672-1.568-.672-.277 0-.549.059-.816.176a2.69 2.69 0 0 0-.704.432 2.97 2.97 0 0 0-.56.64c-.16.235-.277.486-.352.752v5.024h-1.232v-5.2Zm9.802-2.8h1.904v-1.584l1.248-.352v1.936h4.272v1.072h-4.272v3.776c0 .779.187 1.355.56 1.728.384.374.928.56 1.632.56.48 0 .896-.09 1.248-.272.363-.181.688-.378.976-.592l.416.944a4.468 4.468 0 0 1-1.344.72 4.694 4.694 0 0 1-1.584.272 3.82 3.82 0 0 1-1.216-.192 2.684 2.684 0 0 1-.992-.56 2.73 2.73 0 0 1-.688-.976c-.17-.405-.256-.885-.256-1.44v-3.968h-1.904v-1.072Z"/>
          <path fill="#fff" d="m49.319 103.467-.995-.104-.005.052v.052h1Zm.16-1.52.994.105.117-1.105h-1.111v1Zm-.08 0v-1h-.587l-.286.513.873.487Zm-.768 1.376.859.513.007-.013.007-.012-.873-.488Zm-1.632 2.736v1h.568l.29-.487-.858-.513Zm-.4 0-.85.529.294.471h.556v-1Zm-1.712-2.752-.88.476.015.027.016.026.849-.529Zm-.736-1.36.88-.476-.284-.524h-.596v1Zm-.08 0v-1h-1.136l.144 1.127.992-.127Zm.192 1.504h1v-.063l-.008-.063-.992.126Zm0 7.456v1h1v-1h-1Zm-1.296 0h-1v1h1v-1Zm0-11.2v-1h-1v1h1Zm1.232 0 .848-.529-.293-.47h-.555v1Zm2.656 4.256-.849.53.294.47h.555v-1Zm.032 0v1h.565l.292-.484-.857-.516Zm2.56-4.256v-1h-.566l-.291.485.857.515Zm1.2 0h1v-1h-1v1Zm0 11.2v1h1v-1h-1Zm-1.328 0h-1v1h1v-1Zm.994-7.335.16-1.52-1.989-.209-.16 1.52 1.99.209Zm-.834-2.625h-.08v2h.08v-2Zm-.953.513-.768 1.376 1.746.975.768-1.376-1.746-.975Zm-.754 1.351-1.632 2.736 1.718 1.025 1.632-2.736-1.718-1.025Zm-.773 2.248h-.4v2h.4v-2Zm.449.472-1.712-2.752-1.698 1.057 1.712 2.752 1.698-1.057Zm-1.682-2.7-.736-1.36-1.759.952.736 1.36 1.76-.952Zm-1.615-1.884h-.08v2h.08v-2Zm-1.072 1.127.192 1.504 1.984-.253-.192-1.504-1.984.253Zm.184 1.377v7.456h2v-7.456h-2Zm1 6.456h-1.296v2h1.296v-2Zm-.296 1v-11.2h-2v11.2h2Zm-1-10.2h1.232v-2h-1.232v2Zm.383-.47 2.656 4.256 1.697-1.059-2.656-4.256-1.697 1.059Zm3.505 4.726h.032v-2h-.032v2Zm.889-.484 2.56-4.256-1.714-1.031-2.56 4.256 1.714 1.031Zm1.703-3.772h1.2v-2h-1.2v2Zm.2-1v11.2h2v-11.2h-2Zm1 10.2h-1.328v2h1.328v-2Zm-.328 1v-7.44h-2v7.44h2Zm4.402-7.056.743.669.005-.005-.748-.664Zm4.608-.8-.423.907.012.005.012.005.399-.917Zm1.216.88.759-.65-.76.65Zm.704 1.328-.96.28.002.01.003.009.955-.299Zm-.016 3.392.948.317.002-.006-.95-.311Zm-.752 1.312-.74-.673.74.673Zm-1.232.848.371.929.01-.004-.381-.925Zm-3.376-.032-.416.91.008.004.009.003.399-.917Zm-1.216-.896-.76.651.76-.651Zm-.72-1.328-.96.28.002.01.003.009.955-.299Zm1.232-.528-.975.223.003.013.003.013.969-.249Zm.448 1.008.827-.561-.827.561Zm.784.72-.494.871.013.006.48-.877Zm3.12-.512-.774-.634-.001.002.775.632Zm.512-3.456-.975.223.004.017.004.016.967-.256Zm-.448-1.008-.828.562.007.01.007.01.814-.582Zm-.8-.72-.493.871.012.006.48-.877Zm-3.104.512-.775-.632.775.632Zm-.968 2.336c0-1.116.287-1.871.75-2.387l-1.486-1.338c-.88.978-1.264 2.26-1.264 3.725h2Zm.755-2.392c.44-.495 1.098-.8 2.133-.8v-2c-1.462 0-2.724.453-3.628 1.473l1.495 1.327Zm2.133-.8c.563 0 .988.095 1.305.243l.845-1.813c-.643-.3-1.37-.43-2.15-.43v2Zm1.329.253c.364.159.642.366.855.614l1.519-1.301a4.321 4.321 0 0 0-1.577-1.147l-.797 1.834Zm.855.614c.22.257.39.57.504.957l1.92-.56a4.531 4.531 0 0 0-.905-1.698l-1.519 1.301Zm.51.976c.126.407.194.854.194 1.349h2a6.49 6.49 0 0 0-.286-1.946l-1.909.597Zm.194 1.349c0 .552-.074 1.026-.207 1.434l1.901.621a6.598 6.598 0 0 0 .306-2.055h-2Zm-.205 1.428a2.624 2.624 0 0 1-.542.955l1.477 1.347a4.615 4.615 0 0 0 .962-1.669l-1.897-.633Zm-.542.955a2.393 2.393 0 0 1-.875.597l.763 1.849a4.403 4.403 0 0 0 1.59-1.099l-1.478-1.347Zm-.865.593c-.341.136-.76.216-1.276.216v2c.721 0 1.4-.112 2.019-.359l-.743-1.857Zm-1.276.216c-.556 0-.99-.089-1.33-.237l-.797 1.834c.642.28 1.36.403 2.127.403v-2Zm-1.313-.229a2.49 2.49 0 0 1-.872-.637l-1.519 1.301c.424.494.95.877 1.56 1.155l.83-1.819Zm-.872-.637a2.731 2.731 0 0 1-.525-.976l-1.909.597c.197.629.5 1.195.915 1.68l1.519-1.301Zm-.52-.958a4.857 4.857 0 0 1-.183-1.368h-2c0 .672.085 1.317.264 1.928l1.92-.56Zm-.855-1.368c0 .451.051.899.153 1.343l1.95-.445a4.025 4.025 0 0 1-.103-.898h-2Zm.16 1.369c.122.478.316.921.588 1.321l1.655-1.123a2.195 2.195 0 0 1-.307-.696l-1.937.498Zm.588 1.321c.29.428.667.773 1.118 1.028l.987-1.74a1.308 1.308 0 0 1-.45-.411l-1.655 1.123Zm1.13 1.035c.51.28 1.085.395 1.682.395v-2c-.342 0-.568-.065-.72-.148l-.961 1.753Zm1.682.395c1.067 0 2.029-.336 2.694-1.151l-1.55-1.265c-.187.23-.505.416-1.144.416v2Zm2.693-1.15c.64-.78.883-1.823.883-2.97h-2c0 .901-.195 1.417-.43 1.702l1.547 1.268Zm.883-2.97c0-.468-.06-.927-.178-1.375l-1.933.511c.073.278.11.565.11.864h2Zm-.17-1.342a3.781 3.781 0 0 0-.609-1.367l-1.627 1.163c.133.186.23.399.287.649l1.95-.445Zm-.595-1.347a3.262 3.262 0 0 0-1.147-1.035l-.961 1.753c.198.109.343.243.453.405l1.655-1.123Zm-1.134-1.029c-.507-.287-1.082-.402-1.677-.402v2c.343 0 .557.067.69.142l.987-1.74Zm-1.677-.402c-1.068 0-2.03.337-2.695 1.152l1.55 1.265c.187-.231.505-.417 1.145-.417v-2Zm-2.695 1.152c-.632.775-.865 1.82-.865 2.968h2c0-.921.193-1.432.414-1.703l-1.55-1.265Zm10.16 1.4h-1v.036l.003.036.997-.072Zm-.016-.48-.998.063v.004l.998-.067Zm-.048-.496-.998.067.003.033.004.033.991-.133Zm-.048-.416.984-.178-.15-.822h-.834v1Zm-1.072 0h-1v1h1v-1Zm0-1.04v-1h-1v1h1Zm2.144 0 .994-.11-.099-.89h-.895v1Zm.144 1.296-.994.111.1.889h.894v-1Zm.08 0v1h.572l.29-.493-.862-.507Zm.416-.528-.707-.707.707.707Zm.624-.48.509.861.014-.008.014-.009-.537-.844Zm.784-.352.284.959-.284-.959Zm2.208.032-.274.962.007.002.267-.964Zm.944.576-.749.663.014.015.014.015.721-.693Zm.576 1.104-.965.264.002.005.963-.269Zm.192 6.352v1h1v-1h-1Zm-1.248 0h-1v1h1v-1Zm-2.816-6.848.385.923.009-.003.009-.004-.403-.916Zm-.704.432-.647-.762.647.762Zm-.56.64.827.564.005-.009.006-.008-.838-.547Zm-.352.752-.963-.269-.037.132v.137h1Zm0 5.024v1h1v-1h-1Zm-1.232 0h-1v1h1v-1Zm1-5.2c0-.129-.007-.277-.018-.439l-1.995.143a4.4 4.4 0 0 1 .013.296h2Zm-.016-.368c0-.182-.006-.364-.018-.546l-1.996.133c.01.138.014.276.014.413h2Zm-.018-.542a8.16 8.16 0 0 0-.055-.566l-1.982.265a6.1 6.1 0 0 1 .041.426l1.996-.125Zm-.048-.5a4.724 4.724 0 0 0-.062-.528l-1.968.357c.013.07.026.17.034.304l1.996-.133Zm-1.046-1.35h-1.072v2h1.072v-2Zm-.072 1v-1.04h-2v1.04h2Zm-1-.04h2.144v-2h-2.144v2Zm1.15-.889.144 1.296 1.988-.221-.144-1.296-1.988.221Zm1.138 2.185h.08v-2h-.08v2Zm.942-.493c.058-.098.142-.208.261-.327l-1.414-1.415a3.657 3.657 0 0 0-.57.728l1.723 1.014Zm.261-.327a2.12 2.12 0 0 1 .426-.327l-1.017-1.722c-.303.179-.578.39-.823.634l1.414 1.415Zm.454-.344c.15-.095.326-.176.531-.237l-.568-1.917c-.37.109-.717.264-1.037.467l1.074 1.687Zm.531-.237c.19-.056.398-.087.628-.087v-2c-.41 0-.81.055-1.196.17l.568 1.917Zm.628-.087c.421 0 .757.046 1.022.122l.549-1.923a5.72 5.72 0 0 0-1.57-.199v2Zm1.029.124a.91.91 0 0 1 .462.275l1.498-1.325a2.91 2.91 0 0 0-1.425-.877l-.535 1.927Zm.49.305c.11.114.235.317.333.675l1.93-.527c-.16-.581-.418-1.114-.82-1.533l-1.443 1.385Zm.334.68c.095.339.155.827.155 1.491h2c0-.765-.067-1.45-.228-2.028l-1.927.537Zm.155 1.491v4.592h2v-4.592h-2Zm1 3.592h-1.248v2h1.248v-2Zm-.248 1v-4.352h-2v4.352h2Zm0-4.352c0-.963-.15-1.856-.59-2.54l-1.683 1.081c.136.212.273.652.273 1.459h2Zm-.59-2.54c-.544-.845-1.469-1.132-2.41-1.132v2c.574 0 .694.162.727.213l1.683-1.081Zm-2.41-1.132c-.423 0-.831.091-1.218.261l.805 1.831a1 1 0 0 1 .413-.092v-2Zm-1.2.253a3.682 3.682 0 0 0-.967.593l1.295 1.524c.135-.115.281-.204.44-.271l-.768-1.846Zm-.967.593a3.96 3.96 0 0 0-.75.856l1.675 1.093a1.93 1.93 0 0 1 .37-.425l-1.295-1.524Zm-.739.839c-.22.322-.384.672-.489 1.046l1.926.539c.045-.159.115-.311.216-.458l-1.653-1.127Zm-.526 1.315v5.024h2v-5.024h-2Zm1 4.024h-1.232v2h1.232v-2Zm-.232 1v-5.2h-2v5.2h2Zm8.802-8v-1h-1v1h1Zm1.904 0v1h1v-1h-1Zm0-1.584-.271-.962-.729.205v.757h1Zm1.248-.352h1v-1.32l-1.271.358.271.962Zm0 1.936h-1v1h1v-1Zm4.272 0h1v-1h-1v1Zm0 1.072v1h1v-1h-1Zm-4.272 0v-1h-1v1h1Zm.56 5.504-.707.708.01.009.697-.717Zm2.88.288-.447-.894-.01.005.457.889Zm.976-.592.915-.403-.505-1.145-1.005.745.595.803Zm.416.944.625.781.6-.48-.31-.704-.915.403Zm-1.344.72-.328-.944-.006.002.334.942Zm-2.8.08.316-.948-.008-.003-.008-.003-.3.954Zm-.992-.56-.664.748.664-.748Zm-.688-.976-.922.388.004.009.918-.397Zm-.256-5.408h1v-1h-1v1Zm-1.904 0h-1v1h1v-1Zm0-.072h1.904v-2h-1.904v2Zm2.904-1v-1.584h-2v1.584h2Zm-.728-.621 1.248-.352-.543-1.925-1.248.352.543 1.925Zm-.024-1.315v1.936h2v-1.936h-2Zm1 2.936h4.272v-2h-4.272v2Zm3.272-1v1.072h2v-1.072h-2Zm1 .072h-4.272v2h4.272v-2Zm-5.272 1v3.776h2v-3.776h-2Zm0 3.776c0 .919.219 1.802.853 2.436l1.414-1.415c-.112-.112-.267-.382-.267-1.021h-2Zm.863 2.445c.624.607 1.45.843 2.33.843v-2c-.53 0-.791-.136-.936-.277L77.9 110.2Zm2.33.843c.605 0 1.184-.114 1.705-.383l-.916-1.778c-.183.095-.436.161-.79.161v2Zm1.694-.377a7.581 7.581 0 0 0 1.124-.683l-1.19-1.607c-.236.175-.51.342-.828.501l.894 1.789Zm-.386-1.083.416.944 1.83-.807-.416-.944-1.83.807Zm.706-.24a3.5 3.5 0 0 1-1.047.556l.656 1.889a5.48 5.48 0 0 0 1.64-.884l-1.249-1.561Zm-1.053.558c-.404.143-.82.214-1.25.214v2a5.72 5.72 0 0 0 1.918-.329l-.668-1.885Zm-1.25.214a2.83 2.83 0 0 1-.9-.14l-.632 1.897a4.814 4.814 0 0 0 1.532.243v-2Zm-.916-.146a1.675 1.675 0 0 1-.628-.353l-1.328 1.495c.395.351.85.607 1.356.766l.6-1.908Zm-.628-.353a1.732 1.732 0 0 1-.434-.626l-1.836.794c.222.513.533.963.942 1.327l1.328-1.495Zm-.43-.617c-.108-.255-.178-.597-.178-1.052h-2c0 .655.1 1.273.334 1.828l1.844-.776Zm-.178-1.052v-3.968h-2v3.968h2Zm-1-4.968h-1.904v2h1.904v-2Zm-.904 1v-1.072h-2v1.072h2Z"/>
        </g>
        <g class="Poupet">
          <path fill="#fff" d="M26.604 111.075c.811-.192 1.686-.32 2.624-.384a40.918 40.918 0 0 1 2.784-.096c.982 0 1.974.096 2.976.288a8.113 8.113 0 0 1 2.784 1.056c.832.512 1.504 1.216 2.016 2.112.534.896.8 2.037.8 3.424 0 1.365-.245 2.517-.736 3.456a6.62 6.62 0 0 1-1.952 2.304 8.067 8.067 0 0 1-2.784 1.248 13.539 13.539 0 0 1-3.232.384h-1.312l-.768-.064a5.496 5.496 0 0 1-.544-.064v8.512h-2.656v-22.176Zm5.472 1.824c-.554 0-1.088.011-1.6.032s-.917.075-1.216.16v9.28c.107.043.278.075.512.096.235 0 .48.011.736.032h1.248c.726 0 1.44-.064 2.144-.192a5.824 5.824 0 0 0 1.952-.768c.576-.363 1.035-.875 1.376-1.536.363-.661.544-1.504.544-2.528 0-.875-.17-1.6-.512-2.176a3.631 3.631 0 0 0-1.312-1.408 5.163 5.163 0 0 0-1.824-.768 9.58 9.58 0 0 0-2.048-.224Zm16.371 12.352c0-2.709.598-4.779 1.792-6.208 1.216-1.451 2.955-2.176 5.216-2.176 1.195 0 2.23.203 3.104.608a5.442 5.442 0 0 1 2.208 1.696c.576.725 1.003 1.611 1.28 2.656.278 1.024.416 2.165.416 3.424 0 2.709-.608 4.789-1.824 6.24-1.194 1.429-2.922 2.144-5.184 2.144-1.194 0-2.24-.192-3.136-.576a5.9 5.9 0 0 1-2.176-1.696c-.576-.747-1.002-1.632-1.28-2.656-.277-1.045-.416-2.197-.416-3.456Zm2.656 0c0 .811.075 1.589.224 2.336.171.747.427 1.397.768 1.952.342.555.79 1.003 1.344 1.344.555.341 1.227.512 2.016.512 2.902.021 4.352-2.027 4.352-6.144 0-.832-.085-1.621-.256-2.368-.149-.747-.394-1.397-.736-1.952a3.768 3.768 0 0 0-1.344-1.312c-.554-.341-1.226-.512-2.016-.512-2.901-.021-4.352 2.027-4.352 6.144Zm22.82-8v9.12c0 .832.043 1.568.129 2.208.106.619.277 1.141.512 1.568.234.405.554.715.96.928.405.213.917.32 1.536.32.576 0 1.088-.085 1.536-.256a4.043 4.043 0 0 0 1.184-.768c.362-.32.672-.683.928-1.088.277-.427.501-.875.672-1.344v-10.688h2.56v11.456c0 .768.021 1.568.064 2.4.064.811.16 1.525.288 2.144h-1.76l-.64-2.528h-.16a6.367 6.367 0 0 1-1.984 2.08c-.832.555-1.888.832-3.168.832-.854 0-1.611-.107-2.272-.32a3.447 3.447 0 0 1-1.632-1.056c-.427-.512-.758-1.195-.992-2.048-.214-.875-.32-1.973-.32-3.296v-9.664h2.56Zm20.067 0h1.76l.48 1.92h.128a4.8 4.8 0 0 1 1.888-1.696c.789-.405 1.685-.608 2.688-.608 2.133 0 3.722.629 4.768 1.888 1.045 1.259 1.568 3.317 1.568 6.176 0 1.344-.182 2.56-.544 3.648-.342 1.067-.832 1.973-1.472 2.72a6.483 6.483 0 0 1-2.336 1.728c-.896.405-1.899.608-3.008.608-.79 0-1.419-.053-1.888-.16a6.876 6.876 0 0 1-1.472-.48v6.656h-2.56v-22.4Zm6.464 1.856c-1.088 0-1.952.288-2.592.864-.619.555-1.056 1.408-1.312 2.56v7.936c.384.299.821.533 1.312.704.49.149 1.141.224 1.952.224 1.472 0 2.634-.544 3.488-1.632.874-1.109 1.312-2.731 1.312-4.864 0-.875-.075-1.664-.224-2.368-.15-.725-.395-1.333-.736-1.824a3.255 3.255 0 0 0-1.28-1.184c-.512-.277-1.152-.416-1.92-.416Zm27.648 12.864c-.64.512-1.451.917-2.432 1.216-.96.299-1.984.448-3.072.448-1.216 0-2.272-.192-3.168-.576a5.841 5.841 0 0 1-2.208-1.696c-.576-.747-1.003-1.632-1.28-2.656-.277-1.024-.416-2.176-.416-3.456 0-2.731.608-4.811 1.824-6.24 1.216-1.429 2.955-2.144 5.216-2.144.725 0 1.451.085 2.176.256a4.668 4.668 0 0 1 1.952.896c.576.448 1.045 1.088 1.408 1.92.363.811.544 1.888.544 3.232 0 .704-.064 1.483-.192 2.336h-10.272c0 .939.096 1.771.288 2.496.192.725.491 1.344.896 1.856.405.491.928.875 1.568 1.152.661.256 1.461.384 2.4.384.725 0 1.451-.128 2.176-.384.725-.256 1.269-.555 1.632-.896l.96 1.856Zm-5.504-12.864c-1.259 0-2.272.331-3.04.992-.747.661-1.195 1.792-1.344 3.392h7.936c0-1.621-.309-2.752-.928-3.392-.619-.661-1.493-.992-2.624-.992Zm13.082-1.856h2.496v-3.168l2.56-.736v3.904h4.352v2.24h-4.352v8.864c0 1.109.139 1.899.416 2.368.277.448.747.672 1.408.672.555 0 1.024-.053 1.408-.16a20.65 20.65 0 0 0 1.28-.48l.576 1.952a9.882 9.882 0 0 1-1.888.672 9.072 9.072 0 0 1-2.208.256c-1.301 0-2.219-.363-2.752-1.088-.533-.747-.8-1.984-.8-3.712v-9.344h-2.496v-2.24Z"/>
          <path fill="#fff" d="m26.604 111.075-.23-.973-.77.182v.791h1Zm2.624-.384-.068-.998.068.998Zm5.76.192-.188.982.004.001.184-.983Zm2.784 1.056-.524.852.524-.852Zm2.016 2.112-.868.496.005.008.004.007.86-.511Zm.064 6.88.887.463-.887-.463Zm-1.952 2.304.58.815.007-.005.007-.005-.594-.805Zm-7.328 1.632-.083.996.042.004h.041v-1Zm-.768-.064-.083.996.083-.996Zm-.544-.064.196-.981-1.196-.239v1.22h1Zm0 8.512v1h1v-1h-1Zm-2.656 0h-1v1h1v-1Zm3.872-20.32-.041-.999.041.999Zm-1.216.16-.274-.962-.726.208v.754h1Zm0 9.28h-1v.677l.629.251.371-.928Zm.512.096-.09.996.045.004h.045v-1Zm.736.032-.083.996.042.004h.041v-1Zm3.392-.192.18.984.01-.002.012-.003-.202-.979Zm1.952-.768-.532-.846.532.846Zm1.376-1.536-.876-.481-.006.011-.006.011.888.459Zm.032-4.704-.881.472.01.019.011.019.86-.51Zm-1.312-1.408-.562.827.019.013.02.012.523-.852Zm-1.824-.768-.213.977.213-.977Zm-7.29-1.075a15.103 15.103 0 0 1 2.462-.359l-.136-1.996c-.986.067-1.916.203-2.786.409l.46 1.946Zm2.462-.359a39.6 39.6 0 0 1 2.716-.094v-2c-.94 0-1.89.033-2.852.098l.136 1.996Zm2.716-.094c.916 0 1.845.089 2.788.27l.376-1.964a16.745 16.745 0 0 0-3.164-.306v2Zm2.792.271a7.109 7.109 0 0 1 2.444.925l1.049-1.704a9.118 9.118 0 0 0-3.124-1.187l-.369 1.966Zm2.444.925c.681.419 1.238.997 1.672 1.756l1.737-.992a6.82 6.82 0 0 0-2.36-2.468l-1.049 1.704Zm1.681 1.771c.416.699.66 1.649.66 2.913h2c0-1.509-.29-2.842-.941-3.936l-1.719 1.023Zm.66 2.913c0 1.249-.225 2.232-.623 2.993l1.773.926c.584-1.117.85-2.438.85-3.919h-2Zm-.623 2.993a5.63 5.63 0 0 1-1.659 1.962l1.187 1.61a7.625 7.625 0 0 0 2.245-2.646l-1.773-.926Zm-1.645 1.952c-.7.497-1.51.863-2.442 1.092l.475 1.942a9.054 9.054 0 0 0 3.126-1.404l-1.159-1.63Zm-2.442 1.092c-.966.236-1.963.355-2.995.355v2a14.52 14.52 0 0 0 3.47-.413l-.475-1.942Zm-2.995.355h-.544v2h.544v-2Zm-.544 0h-.768v2h.768v-2Zm-.685.003a198.66 198.66 0 0 1-.768-.064l-.166 1.993.768.064.166-1.993Zm-.768-.064a4.806 4.806 0 0 1-.43-.048l-.393 1.961c.169.034.4.059.657.08l.166-1.993Zm-1.627.933v8.512h2v-8.512h-2Zm1 7.512h-2.656v2h2.656v-2Zm-1.656 1v-22.176h-2v22.176h2Zm4.472-21.352c-.567 0-1.114.011-1.641.033l.083 1.998a36.99 36.99 0 0 1 1.558-.031v-2Zm-1.641.033c-.547.023-1.042.081-1.45.197l.55 1.923c.19-.054.506-.102.983-.122l-.083-1.998Zm-2.175 1.159v9.28h2v-9.28h-2Zm.629 10.208c.248.1.54.141.793.164l.18-1.992a2.25 2.25 0 0 1-.21-.027c-.05-.009-.05-.013-.02-.002l-.743 1.857Zm.883.168c.205 0 .422.009.653.028l.166-1.993a10.054 10.054 0 0 0-.819-.035v2Zm.736.032h.736v-2h-.736v2Zm.736 0h.512v-2h-.513v2Zm.512 0c.785 0 1.56-.069 2.323-.208l-.358-1.968c-.644.117-1.298.176-1.965.176v2Zm2.346-.213a6.827 6.827 0 0 0 2.283-.901l-1.065-1.692a4.841 4.841 0 0 1-1.621.634l.403 1.959Zm2.283-.901c.741-.466 1.317-1.119 1.732-1.923l-1.777-.918c-.268.518-.61.89-1.02 1.149l1.065 1.692Zm1.72-1.901c.467-.852.667-1.875.667-3.009h-2c0 .913-.162 1.576-.42 2.047l1.753.962Zm.667-3.009c0-1.001-.195-1.915-.651-2.686l-1.72 1.02c.225.381.371.917.371 1.666h2Zm-.63-2.648a4.63 4.63 0 0 0-1.67-1.788l-1.048 1.704c.398.244.715.58.955 1.028l1.763-.944Zm-1.631-1.763a6.172 6.172 0 0 0-2.173-.918l-.427 1.954a4.172 4.172 0 0 1 1.475.618l1.125-1.654Zm-2.173-.918a10.579 10.579 0 0 0-2.262-.247v2c.61 0 1.22.066 1.835.201l.427-1.954Zm15.901 6.897-.766-.643v.002l.766.641Zm8.32-1.568-.42.907.013.006.013.006.394-.919Zm2.208 1.696-.792.611.01.011.782-.622Zm1.28 2.656-.966.256.001.005.965-.261Zm-1.408 9.664-.766-.643v.002l.766.641Zm-8.32 1.568-.42.907.013.006.013.006.394-.919Zm-2.176-1.696-.791.611.008.011.783-.622Zm-1.28-2.656-.966.256.001.005.965-.261Zm2.464-1.12-.98.196.002.013.004.014.974-.223Zm.768 1.952-.851.524.851-.524Zm1.344 1.344.525-.852-.525.852Zm2.016.512.008-1h-.008v1Zm4.096-8.512-.98.196.003.013.003.014.974-.223Zm-2.08-3.264-.524.852.012.007.013.007.5-.866Zm-2.016-.512-.007 1h.007v-1Zm-6.008 6.144c0-2.579.57-4.384 1.56-5.567l-1.535-1.282c-1.4 1.675-2.025 4.009-2.025 6.849h2Zm1.559-5.566c.988-1.179 2.42-1.818 4.45-1.818v-2c-2.494 0-4.54.812-5.983 2.533l1.533 1.285Zm4.45-1.818c1.083 0 1.968.184 2.683.515l.84-1.814c-1.033-.48-2.218-.701-3.524-.701v2Zm2.71.527a4.445 4.445 0 0 1 1.81 1.388l1.583-1.222a6.449 6.449 0 0 0-2.606-2.004l-.788 1.838Zm1.818 1.399c.477.601.849 1.356 1.097 2.29l1.933-.513c-.307-1.156-.789-2.171-1.464-3.021l-1.566 1.244Zm1.098 2.295c.25.925.381 1.977.381 3.163h2c0-1.331-.146-2.562-.45-3.686l-1.93.523Zm.381 3.163c0 2.574-.578 4.391-1.59 5.597l1.533 1.285c1.42-1.694 2.057-4.037 2.057-6.882h-2Zm-1.59 5.599c-.965 1.153-2.383 1.785-4.418 1.785v2c2.488 0 4.526-.798 5.952-2.503l-1.535-1.282Zm-4.418 1.785c-1.089 0-1.995-.175-2.742-.495l-.788 1.838c1.046.448 2.23.657 3.53.657v-2Zm-2.715-.483a4.908 4.908 0 0 1-1.814-1.411l-1.566 1.244a6.902 6.902 0 0 0 2.539 1.981l.84-1.814Zm-1.805-1.4c-.486-.63-.86-1.393-1.106-2.307l-1.93.523c.306 1.135.787 2.143 1.453 3.006l1.583-1.222Zm-1.105-2.302c-.252-.949-.383-2.013-.383-3.199h-2c0 1.331.147 2.571.45 3.712l1.933-.513Zm.273-3.199c0 .872.08 1.717.244 2.532l1.96-.392a10.89 10.89 0 0 1-.204-2.14h-2Zm.25 2.559c.19.835.483 1.591.89 2.253l1.704-1.048c-.275-.447-.494-.992-.645-1.651l-1.95.446Zm.89 2.253a5.055 5.055 0 0 0 1.672 1.672l1.049-1.704a3.047 3.047 0 0 1-1.017-1.016l-1.703 1.048Zm1.672 1.672c.743.457 1.605.66 2.54.66v-2c-.643 0-1.125-.138-1.491-.364l-1.049 1.704Zm2.533.66c1.719.012 3.142-.607 4.087-1.942.9-1.27 1.272-3.057 1.272-5.202h-2c0 1.972-.353 3.268-.904 4.046-.504.712-1.258 1.107-2.44 1.098l-.015 2Zm5.36-7.144c0-.901-.093-1.765-.282-2.591l-1.95.446a9.57 9.57 0 0 1 .231 2.145h2Zm-.276-2.564c-.169-.844-.452-1.609-.865-2.28l-1.703 1.048c.27.438.477.974.607 1.624l1.96-.392Zm-.865-2.28a4.762 4.762 0 0 0-1.696-1.654l-1 1.732c.409.236.737.554.993.97l1.703-1.048Zm-1.672-1.64c-.742-.457-1.605-.66-2.54-.66v2c.644 0 1.126.138 1.492.364l1.048-1.704Zm-2.532-.66c-1.72-.013-3.142.606-4.088 1.942-.9 1.27-1.272 3.057-1.272 5.202h2c0-1.972.353-3.268.904-4.046.505-.713 1.259-1.107 2.441-1.098l.015-2Zm18.46-.856h1v-1h-1v1Zm.129 11.328-.992.132.003.019.003.019.986-.17Zm.512 1.568-.877.482.006.009.005.01.866-.501Zm.96.928.465-.885-.465.885Zm3.072.064.356.934.019-.007.019-.008-.394-.919Zm1.184-.768-.662-.75-.011.01-.011.01.684.73Zm.928-1.088-.839-.545-.007.011.846.534Zm.672-1.344.94.342.06-.166v-.176h-1Zm0-10.688v-1h-1v1h1Zm2.56 0h1v-1h-1v1Zm.064 13.856-1 .051.002.014v.014l.998-.079Zm.288 2.144v1h1.228l-.25-1.203-.978.203Zm-1.76 0-.97.245.191.755h.779v-1Zm-.64-2.528.969-.246-.191-.754h-.778v1Zm-.16 0v-1h-.572l-.29.492.862.508Zm-1.984 2.08.554.832-.554-.832Zm-5.44.512.307-.952-.01-.003-.01-.003-.287.958Zm-1.632-1.056-.769.64.008.009.008.009.753-.658Zm-.992-2.048-.972.237.004.014.003.014.965-.265Zm-.32-12.96v-1h-1v1h1Zm1.56 0v9.12h2v-9.12h-2Zm0 9.12c0 .864.044 1.646.136 2.34l1.983-.264a15.899 15.899 0 0 1-.12-2.076h-2Zm.142 2.378c.12.698.32 1.332.621 1.88l1.753-.964c-.168-.306-.31-.717-.403-1.256l-1.97.34Zm.632 1.899a3.365 3.365 0 0 0 1.36 1.312l.931-1.77a1.368 1.368 0 0 1-.56-.544l-1.73 1.002Zm1.36 1.312c.59.311 1.275.435 2.002.435v-2c-.511 0-.85-.089-1.07-.205l-.932 1.77Zm2.002.435c.673 0 1.31-.1 1.892-.322l-.712-1.869c-.314.12-.702.191-1.18.191v2Zm1.93-.337a5.045 5.045 0 0 0 1.474-.958l-1.368-1.459a3.047 3.047 0 0 1-.894.579l.788 1.838Zm1.451-.937a6.044 6.044 0 0 0 1.112-1.304l-1.69-1.068a4.03 4.03 0 0 1-.745.872l1.323 1.5Zm1.105-1.293a7.593 7.593 0 0 0 .773-1.547l-1.88-.684a5.582 5.582 0 0 1-.57 1.141l1.677 1.09Zm.834-1.889v-10.688h-2v10.688h2Zm-1-9.688h2.56v-2h-2.56v2Zm1.56-1v11.456h2v-11.456h-2Zm0 11.456c0 .786.022 1.603.065 2.451l1.997-.102a45.78 45.78 0 0 1-.062-2.349h-2Zm.067 2.479c.066.841.167 1.598.305 2.267l1.959-.405a16.478 16.478 0 0 1-.27-2.02l-1.994.158Zm1.285 1.065h-1.76v2h1.76v-2Zm-.791.754-.64-2.528-1.939.491.64 2.528 1.939-.491Zm-1.61-3.282h-.16v2h.16v-2Zm-1.02.492a5.36 5.36 0 0 1-1.678 1.756l1.11 1.664a7.365 7.365 0 0 0 2.29-2.404l-1.723-1.016Zm-1.678 1.756c-.627.418-1.476.664-2.613.664v2c1.422 0 2.686-.309 3.722-1l-1.11-1.664Zm-2.613.664c-.772 0-1.423-.097-1.965-.272L74 134.267c.78.251 1.644.368 2.579.368v-2Zm-1.985-.278a2.442 2.442 0 0 1-1.167-.757l-1.505 1.317a4.446 4.446 0 0 0 2.097 1.356l.575-1.916Zm-1.151-.738c-.31-.373-.588-.915-.796-1.673l-1.929.53c.261.948.646 1.772 1.188 2.423l1.537-1.28Zm-.789-1.645c-.188-.77-.291-1.783-.291-3.059h-2c0 1.369.11 2.554.348 3.533l1.943-.474Zm-.291-3.059v-9.664h-2v9.664h2Zm-1-8.664h2.56v-2h-2.56v2Zm22.626-1v-1h-1v1h1Zm1.76 0 .97-.243-.19-.757h-.78v1Zm.48 1.92-.97.242.189.758h.78v-1Zm.128 0v1h.54l.295-.451-.835-.549Zm1.888-1.696.447.894.01-.005-.457-.889Zm7.456 1.28-.77.639.77-.639Zm1.024 9.824-.949-.316-.004.011.953.305Zm-1.472 2.72-.76-.651.76.651Zm-2.336 1.728-.405-.915-.008.004.413.911Zm-4.896.448.221-.975-.017-.004-.017-.003-.187.982Zm-1.472-.48.402-.915-1.402-.618v1.533h1Zm0 6.656v1h1v-1h-1Zm-2.56 0h-1v1h1v-1Zm3.872-19.68.667.744.002-.001-.67-.743Zm-1.312 2.56-.977-.217-.023.107v.11h1Zm0 7.936h-1v.489l.386.3.614-.789Zm1.312.704-.329.944.019.007.018.006.292-.957Zm5.44-1.408-.786-.619-.001.002.787.617Zm1.088-7.232-.98.202.001.005.979-.207Zm-.736-1.824-.848.53.013.021.014.02.821-.571Zm-1.28-1.184-.477.879.008.004.007.004.462-.887Zm-8.384-1.272h1.76v-2h-1.76v2Zm.79-.758.48 1.92 1.94-.485-.48-1.92-1.94.485Zm1.45 2.678h.128v-2h-.128v2Zm.963-.451a3.801 3.801 0 0 1 1.5-1.351l-.895-1.789a5.809 5.809 0 0 0-2.276 2.042l1.671 1.098Zm1.51-1.356c.63-.323 1.366-.497 2.231-.497v-2c-1.141 0-2.197.231-3.145.718l.913 1.779Zm2.231-.497c1.933 0 3.197.562 3.998 1.527l1.539-1.278c-1.29-1.553-3.204-2.249-5.537-2.249v2Zm3.998 1.527c.82.987 1.338 2.754 1.338 5.537h2c0-2.935-.528-5.285-1.799-6.815l-1.539 1.278Zm1.338 5.537c0 1.254-.17 2.361-.493 3.332l1.897.632c.402-1.206.596-2.531.596-3.964h-2Zm-.497 3.343c-.306.957-.737 1.742-1.279 2.374l1.519 1.302c.738-.861 1.289-1.89 1.665-3.066l-1.905-.61Zm-1.279 2.374a5.475 5.475 0 0 1-1.981 1.464l.809 1.83a7.498 7.498 0 0 0 2.691-1.992l-1.519-1.302Zm-1.989 1.468c-.75.339-1.61.519-2.595.519v2c1.233 0 2.379-.226 3.42-.697l-.825-1.822Zm-2.595.519c-.756 0-1.301-.052-1.667-.135l-.443 1.95c.573.13 1.287.185 2.11.185v-2Zm-1.701-.142a5.941 5.941 0 0 1-1.257-.413l-.805 1.83a7.925 7.925 0 0 0 1.688.547l.374-1.964Zm-2.66.502v6.656h2v-6.656h-2Zm1 5.656h-2.56v2h2.56v-2Zm-1.56 1v-22.4h-2v22.4h2Zm5.465-21.544c-1.268 0-2.393.339-3.261 1.121l1.338 1.486c.411-.37 1.014-.607 1.923-.607v-2Zm-3.26 1.119c-.827.742-1.338 1.815-1.62 3.088l1.952.434c.229-1.031.593-1.665 1.003-2.033l-1.335-1.489Zm-1.644 3.305v7.936h2v-7.936h-2Zm.386 8.725c.475.37 1.01.655 1.597.859l.657-1.889a3.556 3.556 0 0 1-1.026-.548l-1.228 1.578Zm1.634.872c.624.189 1.385.267 2.244.267v-2c-.763 0-1.303-.072-1.661-.181l-.583 1.914Zm2.244.267c1.756 0 3.218-.668 4.274-2.015l-1.573-1.234c-.65.829-1.514 1.249-2.701 1.249v2Zm4.273-2.013c1.069-1.356 1.527-3.234 1.527-5.483h-2c0 2.018-.417 3.382-1.098 4.245l1.571 1.238Zm1.527-5.483c0-.93-.08-1.791-.246-2.576l-1.957.415c.133.623.203 1.342.203 2.161h2Zm-.245-2.57c-.17-.827-.46-1.568-.894-2.193l-1.642 1.142c.248.356.449.831.577 1.455l1.959-.404Zm-.867-2.152a4.255 4.255 0 0 0-1.667-1.541l-.923 1.774c.374.195.668.466.894.827l1.696-1.06Zm-1.652-1.533c-.698-.378-1.513-.537-2.396-.537v2c.653 0 1.117.118 1.443.295l.953-1.758Zm25.252 13.327.625.781.64-.512-.377-.729-.888.46Zm-2.432 1.216-.291-.957-.006.002.297.955Zm-6.24-.128-.412.911.009.004.009.004.394-.919Zm-2.208-1.696-.792.611.009.011.783-.622Zm-1.28-2.656-.965.261.965-.261Zm1.408-9.696.762.648-.762-.648Zm7.392-1.888-.229.973.014.004.013.002.202-.979Zm1.952.896.614-.789-.614.789Zm1.408 1.92-.917.399.004.009.913-.408Zm.352 5.568v1h.861l.128-.852-.989-.148Zm-10.272 0v-1h-1v1h1Zm.288 2.496-.967.256.967-.256Zm.896 1.856-.784.621.007.008.006.008.771-.637Zm1.568 1.152-.397.917.018.008.018.007.361-.932Zm4.576 0 .333.943-.333-.943Zm1.632-.896.888-.46-.608-1.176-.965.908.685.728Zm-7.584-10.016-.652-.758-.011.009.663.749Zm-1.344 3.392-.996-.093-.102 1.093h1.098v-1Zm7.936 0v1h1v-1h-1Zm-.928-3.392-.73.683.005.006.006.006.719-.695Zm2.255 11.091c-.519.416-1.209.77-2.098 1.04l.582 1.914c1.074-.327 2.005-.784 2.766-1.392l-1.25-1.562Zm-2.104 1.042a9.296 9.296 0 0 1-2.775.403v2c1.181 0 2.305-.162 3.369-.493l-.594-1.91Zm-2.775.403c-1.113 0-2.029-.176-2.774-.495l-.788 1.838c1.047.449 2.243.657 3.562.657v-2Zm-2.756-.487a4.847 4.847 0 0 1-1.837-1.407l-1.566 1.244a6.846 6.846 0 0 0 2.579 1.985l.824-1.822Zm-1.828-1.396c-.486-.63-.859-1.393-1.107-2.307l-1.93.523c.307 1.135.788 2.143 1.453 3.006l1.584-1.222Zm-1.107-2.307c-.25-.923-.381-1.985-.381-3.194h-2c0 1.351.146 2.593.451 3.717l1.93-.523Zm-.381-3.194c0-2.599.58-4.41 1.586-5.592l-1.524-1.296c-1.426 1.677-2.062 4.025-2.062 6.888h2Zm1.586-5.592c.987-1.16 2.42-1.792 4.454-1.792v-2c-2.488 0-4.533.797-5.978 2.496l1.524 1.296Zm4.454-1.792c.646 0 1.295.076 1.947.229l.458-1.947c-.798-.187-1.6-.282-2.405-.282v2Zm1.974.235a3.675 3.675 0 0 1 1.54.706l1.228-1.578a5.67 5.67 0 0 0-2.364-1.087l-.404 1.959Zm1.54.706c.416.324.793.815 1.105 1.53l1.834-.799c-.414-.948-.975-1.737-1.711-2.309l-1.228 1.578Zm1.109 1.539c.284.634.457 1.555.457 2.824h2c0-1.419-.189-2.653-.631-3.64l-1.826.816Zm.457 2.824a14.9 14.9 0 0 1-.181 2.188l1.978.296a16.82 16.82 0 0 0 .203-2.484h-2Zm.808 1.336h-10.272v2h10.272v-2Zm-11.272 1c0 1.004.103 1.925.321 2.752l1.934-.512c-.165-.624-.255-1.367-.255-2.24h-2Zm.321 2.752c.222.838.577 1.586 1.079 2.221l1.568-1.242c-.308-.389-.551-.879-.713-1.491l-1.934.512Zm1.092 2.237c.515.624 1.171 1.098 1.942 1.432l.795-1.835c-.51-.22-.9-.513-1.195-.871l-1.542 1.274Zm1.978 1.447c.807.313 1.737.452 2.761.452v-2c-.853 0-1.523-.117-2.039-.317l-.722 1.865Zm2.761.452c.846 0 1.683-.15 2.509-.441l-.666-1.886a5.517 5.517 0 0 1-1.843.327v2Zm2.509-.441c.792-.28 1.481-.637 1.984-1.111l-1.37-1.456c-.222.208-.621.449-1.28.681l.666 1.886Zm.411-1.38.96 1.856 1.776-.919-.96-1.856-1.776.919Zm-3.656-12.467c-1.438 0-2.702.381-3.692 1.234l1.305 1.516c.545-.47 1.308-.75 2.387-.75v-2Zm-3.703 1.243c-1.024.907-1.517 2.342-1.677 4.048l1.992.186c.139-1.494.542-2.321 1.011-2.737l-1.326-1.497Zm-.681 5.141h7.936v-2h-7.936v2Zm8.936-1c0-1.688-.31-3.157-1.209-4.087l-1.438 1.39c.339.35.647 1.142.647 2.697h2Zm-1.198-4.075c-.852-.912-2.02-1.309-3.354-1.309v2c.927 0 1.509.264 1.894.675l1.46-1.366Zm9.728-2.165v-1h-1v1h1Zm2.496 0v1h1v-1h-1Zm0-3.168-.276-.961-.724.208v.753h1Zm2.56-.736h1v-1.328l-1.276.367.276.961Zm0 3.904h-1v1h1v-1Zm4.352 0h1v-1h-1v1Zm0 2.24v1h1v-1h-1Zm-4.352 0v-1h-1v1h1Zm.416 11.232-.861.509.005.008.006.009.85-.526Zm2.816.512.268.963.024-.006.024-.008-.316-.949Zm1.28-.48.959-.283-.313-1.062-1.025.419.379.926Zm.576 1.952.434.901.766-.369-.241-.815-.959.283Zm-1.888.672.243.97-.243-.97Zm-4.96-.832-.814.581.008.011.806-.592Zm-.8-13.056h1v-1h-1v1Zm-2.496 0h-1v1h1v-1Zm0-1.24h2.496v-2h-2.496v2Zm3.496-1v-3.168h-2v3.168h2Zm-.724-2.207 2.56-.736-.552-1.922-2.56.736.552 1.922Zm1.284-1.697v3.904h2v-3.904h-2Zm1 4.904h4.352v-2h-4.352v2Zm3.352-1v2.24h2v-2.24h-2Zm1 1.24h-4.352v2h4.352v-2Zm-5.352 1v8.864h2v-8.864h-2Zm0 8.864c0 1.138.133 2.162.555 2.877l1.722-1.018c-.132-.223-.277-.779-.277-1.859h-2Zm.566 2.894c.507.82 1.352 1.146 2.258 1.146v-2c-.416 0-.51-.122-.558-.198l-1.7 1.052Zm2.258 1.146c.613 0 1.178-.058 1.676-.197l-.536-1.927c-.27.075-.643.124-1.14.124v2Zm1.724-.211c.41-.137.858-.305 1.343-.504l-.758-1.851c-.453.186-.859.338-1.217.457l.632 1.898Zm.005-1.146.576 1.952 1.918-.566-.576-1.952-1.918.566Zm1.101.768a8.863 8.863 0 0 1-1.696.603l.485 1.94a10.847 10.847 0 0 0 2.079-.741l-.868-1.802Zm-1.696.603a8.128 8.128 0 0 1-1.966.226v2c.861 0 1.68-.093 2.451-.286l-.485-1.94Zm-1.966.226c-1.133 0-1.675-.312-1.946-.681l-1.612 1.185c.796 1.082 2.088 1.496 3.558 1.496v-2Zm-1.938-.669c-.345-.483-.614-1.454-.614-3.131h-2c0 1.779.265 3.283.986 4.293l1.628-1.162Zm-.614-3.131v-9.344h-2v9.344h2Zm-1-10.344h-2.496v2h2.496v-2Zm-1.496 1v-2.24h-2v2.24h2Z"/>
        </g>
        <g class="Bike">
          <path fill="#fff" d="M187.116 114.152c0 .6-.096 1.212-.288 1.836a6.34 6.34 0 0 1-.864 1.764 5.906 5.906 0 0 1-1.476 1.404c-.6.408-1.308.72-2.124.936v.144c.72.12 1.404.324 2.052.612.672.288 1.26.684 1.764 1.188a5.854 5.854 0 0 1 1.224 1.836c.312.72.468 1.572.468 2.556 0 1.296-.276 2.424-.828 3.384a6.74 6.74 0 0 1-2.124 2.304c-.864.6-1.86 1.044-2.988 1.332-1.128.288-2.28.432-3.456.432h-1.44c-.552 0-1.128-.024-1.728-.072-.6-.024-1.2-.072-1.8-.144a9.132 9.132 0 0 1-1.584-.252v-24.804a39.84 39.84 0 0 1 3.096-.36 47.561 47.561 0 0 1 3.852-.144c.936 0 1.884.084 2.844.252a7.445 7.445 0 0 1 2.664.9 5.273 5.273 0 0 1 1.944 1.836c.528.792.792 1.812.792 3.06Zm-8.352 17.136a9.79 9.79 0 0 0 2.232-.252 6.03 6.03 0 0 0 1.908-.864 4.47 4.47 0 0 0 1.296-1.476c.336-.576.504-1.26.504-2.052 0-.984-.204-1.776-.612-2.376-.384-.6-.9-1.068-1.548-1.404a6.498 6.498 0 0 0-2.124-.684 15.84 15.84 0 0 0-2.376-.18h-3.132v9.036c.168.048.408.084.72.108.312.024.648.048 1.008.072l1.116.072h1.008Zm-1.98-11.808c.408 0 .9-.012 1.476-.036.576-.024 1.056-.06 1.44-.108.576-.192 1.116-.42 1.62-.684a7.051 7.051 0 0 0 1.332-.972 4.06 4.06 0 0 0 .936-1.296 3.72 3.72 0 0 0 .36-1.62c0-.792-.156-1.44-.468-1.944a3.331 3.331 0 0 0-1.188-1.26 4.968 4.968 0 0 0-1.728-.648 9.1 9.1 0 0 0-1.98-.216c-.792 0-1.524.024-2.196.072-.648.024-1.14.072-1.476.144v8.568h1.872Zm28.691 14.112h-7.992v-.9c.36-.192.732-.348 1.116-.468.384-.144.804-.276 1.26-.396V117.68l-2.376-.288v-.936c.696-.288 1.452-.54 2.268-.756a29.806 29.806 0 0 1 2.448-.54h.9v16.668c.48.12.912.252 1.296.396.384.12.744.276 1.08.468v.9Zm-6.3-24.12c0-.648.204-1.164.612-1.548.432-.384.996-.576 1.692-.576s1.248.192 1.656.576c.408.384.612.9.612 1.548s-.204 1.164-.612 1.548c-.408.36-.96.54-1.656.54s-1.26-.18-1.692-.54c-.408-.384-.612-.9-.612-1.548Zm21.089 16.02h-1.656v8.1h-2.88v-25.2h2.88v15.336l1.476-.504 5.58-7.632h3.348l-5.508 7.236-1.476 1.188 1.8 1.44 6.012 8.136h-3.564l-6.012-8.1Zm31.528 6.66c-.72.576-1.632 1.032-2.736 1.368-1.08.336-2.232.504-3.456.504-1.368 0-2.556-.216-3.564-.648-1.008-.456-1.836-1.092-2.484-1.908-.648-.84-1.128-1.836-1.44-2.988-.312-1.152-.468-2.448-.468-3.888 0-3.072.684-5.412 2.052-7.02 1.368-1.608 3.324-2.412 5.868-2.412.816 0 1.632.096 2.448.288a5.254 5.254 0 0 1 2.196 1.008c.648.504 1.176 1.224 1.584 2.16.408.912.612 2.124.612 3.636 0 .792-.072 1.668-.216 2.628h-11.556c0 1.056.108 1.992.324 2.808.216.816.552 1.512 1.008 2.088.456.552 1.044.984 1.764 1.296.744.288 1.644.432 2.7.432.816 0 1.632-.144 2.448-.432.816-.288 1.428-.624 1.836-1.008l1.08 2.088ZM245.6 117.68c-1.416 0-2.556.372-3.42 1.116-.84.744-1.344 2.016-1.512 3.816h8.928c0-1.824-.348-3.096-1.044-3.816-.696-.744-1.68-1.116-2.952-1.116Z"/>
          <path fill="#fff" d="m186.828 115.988-.956-.294.956.294Zm-.864 1.764.809.588.006-.008.006-.009-.821-.571Zm-1.476 1.404-.562-.827.562.827Zm-2.124.936-.256-.967-.744.197v.77h1Zm0 .144h-1v.847l.836.139.164-.986Zm2.052.612-.406.914.012.005.394-.919Zm1.764 1.188.707-.707-.707.707Zm1.224 1.836.918-.398-.918.398Zm-.36 5.94-.867-.499-.004.008.871.491Zm-2.124 2.304-.56-.829-.01.007.57.822Zm-2.988 1.332-.247-.969.247.969Zm-6.624.36.08-.997-.02-.002h-.02l-.04.999Zm-1.8-.144.119-.993-.02-.002-.019-.002-.08.997Zm-1.584-.252h-1v.771l.745.196.255-.967Zm0-24.804-.16-.987-.84.136v.851h1Zm3.096-.36-.081-.997.081.997Zm6.696.108-.172.985.013.002.014.002.145-.989Zm2.664.9-.499.866.01.006.01.006.479-.878Zm1.944 1.836-.844.537.006.009.006.009.832-.555Zm-5.328 19.944.227.974.015-.004.016-.004-.258-.966Zm1.908-.864.571.821.012-.008.011-.009-.594-.804Zm1.296-1.476-.864-.504-.008.014-.007.014.879.476Zm-.108-4.428-.842.539.007.012.008.011.827-.562Zm-1.548-1.404-.474.88.007.004.007.004.46-.888Zm-2.124-.684-.15.989.15-.989Zm-5.508-.18v-1h-1v1h1Zm0 9.036h-1v.754l.725.207.275-.961Zm1.728.18-.067.998.067-.998Zm1.116.072-.062.998.031.002h.031v-1Zm.504-11.844.042.999-.042-.999Zm1.44-.108.124.992.098-.012.094-.031-.316-.949Zm1.62-.684.464.886.016-.009.016-.009-.496-.868Zm1.332-.972.684.729.001-.001-.685-.728Zm.936-1.296-.903-.43-.005.01-.004.009.912.411Zm-.108-3.564-.878.479.013.024.015.023.85-.526Zm-1.188-1.26.526-.85-.526.85Zm-1.728-.648-.217.976.017.004.018.003.182-.983Zm-4.176-.144.037.999h.017l.017-.002-.071-.997Zm-1.476.144-.21-.978-.79.169v.809h1Zm0 8.568h-1v1h1v-1Zm11.204-5.328c0 .492-.079 1.005-.244 1.542l1.912.588a7.246 7.246 0 0 0 .332-2.13h-2Zm-.244 1.542a5.348 5.348 0 0 1-.729 1.487l1.642 1.142a7.357 7.357 0 0 0 .999-2.041l-1.912-.588Zm-.717 1.47a4.901 4.901 0 0 1-1.229 1.165l1.124 1.654a6.911 6.911 0 0 0 1.723-1.643l-1.618-1.176Zm-1.229 1.165c-.493.335-1.094.604-1.818.796l.512 1.934c.908-.241 1.723-.595 2.43-1.076l-1.124-1.654Zm-2.562 1.763v.144h2v-.144h-2Zm.836 1.13a7.466 7.466 0 0 1 1.81.54l.812-1.828a9.483 9.483 0 0 0-2.294-.685l-.328 1.973Zm1.822.545a4.571 4.571 0 0 1 1.451.976l1.414-1.414a6.543 6.543 0 0 0-2.077-1.4l-.788 1.838Zm1.451.976c.406.406.746.91 1.013 1.526l1.836-.795a6.836 6.836 0 0 0-1.435-2.145l-1.414 1.414Zm1.013 1.526c.246.567.386 1.278.386 2.159h2c0-1.087-.172-2.081-.55-2.954l-1.836.795Zm.386 2.159c0 1.151-.244 2.101-.695 2.885l1.734.997c.653-1.135.961-2.441.961-3.882h-2Zm-.699 2.893a5.743 5.743 0 0 1-1.813 1.966l1.12 1.657a7.733 7.733 0 0 0 2.435-2.641l-1.742-.982Zm-1.823 1.973c-.757.526-1.641.923-2.665 1.185l.494 1.938c1.232-.315 2.339-.805 3.311-1.48l-1.14-1.643Zm-2.665 1.185a12.932 12.932 0 0 1-3.209.401v2c1.259 0 2.494-.154 3.703-.463l-.494-1.938Zm-3.209.401h-1.44v2h1.44v-2Zm-1.44 0c-.523 0-1.072-.023-1.648-.069l-.16 1.994c.624.05 1.227.075 1.808.075v-2Zm-1.688-.071a21.716 21.716 0 0 1-1.721-.138l-.238 1.986c.626.075 1.252.125 1.879.15l.08-1.998Zm-1.76-.142a8.15 8.15 0 0 1-1.41-.222l-.509 1.934c.527.138 1.115.23 1.759.282l.16-1.994Zm-.664.745v-24.804h-2v24.804h2Zm-.84-23.817c.855-.139 1.86-.256 3.017-.35l-.162-1.994a40.71 40.71 0 0 0-3.175.37l.32 1.974Zm3.017-.35a46.311 46.311 0 0 1 3.771-.141v-2c-1.415 0-2.726.049-3.933.147l.162 1.994Zm3.771-.141c.876 0 1.766.078 2.672.237l.344-1.97a17.422 17.422 0 0 0-3.016-.267v2Zm2.699.241c.87.128 1.637.39 2.31.777l.998-1.733a8.463 8.463 0 0 0-3.018-1.023l-.29 1.979Zm2.33.789a4.265 4.265 0 0 1 1.579 1.495l1.688-1.074a6.272 6.272 0 0 0-2.309-2.177l-.958 1.756Zm1.591 1.513c.389.583.624 1.394.624 2.505h2c0-1.385-.293-2.615-.96-3.615l-1.664 1.11Zm-6.728 20.641c.841 0 1.662-.092 2.459-.278l-.454-1.948a8.796 8.796 0 0 1-2.005.226v2Zm2.49-.286a7.034 7.034 0 0 0 2.221-1.009l-1.142-1.642a5.049 5.049 0 0 1-1.595.719l.516 1.932Zm2.244-1.026a5.472 5.472 0 0 0 1.581-1.804l-1.758-.952a3.49 3.49 0 0 1-1.011 1.148l1.188 1.608Zm1.566-1.776c.44-.756.64-1.621.64-2.556h-2c0 .648-.136 1.151-.368 1.548l1.728 1.008Zm.64-2.556c0-1.115-.231-2.123-.785-2.938l-1.654 1.124c.262.385.439.961.439 1.814h2Zm-.77-2.915a4.971 4.971 0 0 0-1.93-1.753l-.92 1.776a2.97 2.97 0 0 1 1.166 1.055l1.684-1.078Zm-1.916-1.746a7.49 7.49 0 0 0-2.448-.792l-.3 1.978c.693.105 1.289.3 1.8.575l.948-1.761Zm-2.448-.792a16.895 16.895 0 0 0-2.526-.191v2c.741 0 1.483.056 2.226.169l.3-1.978Zm-2.526-.191h-3.132v2h3.132v-2Zm-4.132 1v9.036h2V122h-2Zm.725 9.997c.265.076.583.118.918.144l.154-1.994a2.878 2.878 0 0 1-.522-.073l-.55 1.923Zm.918.144c.316.024.656.048 1.018.073l.133-1.996c-.357-.024-.689-.048-.997-.071l-.154 1.994Zm1.018.073 1.121.072.124-1.996-1.112-.072-.133 1.996Zm1.183.074h1.008v-2h-1.008v2Zm-.972-11.808c.426 0 .933-.013 1.518-.037l-.084-1.998c-.567.023-1.044.035-1.434.035v2Zm1.518-.037a18.946 18.946 0 0 0 1.522-.115l-.248-1.984c-.347.043-.797.077-1.358.101l.084 1.998Zm1.714-.158a12.01 12.01 0 0 0 1.768-.747l-.928-1.772a9.918 9.918 0 0 1-1.472.621l.632 1.898Zm1.8-.765a8.056 8.056 0 0 0 1.52-1.111l-1.368-1.459c-.322.302-.701.58-1.144.834l.992 1.736Zm1.521-1.112a5.039 5.039 0 0 0 1.163-1.614l-1.824-.821a3.074 3.074 0 0 1-.709.979l1.37 1.456Zm1.154-1.594a4.72 4.72 0 0 0 .457-2.05h-2c0 .432-.089.825-.263 1.19l1.806.86Zm.457-2.05c0-.917-.18-1.764-.618-2.471l-1.7 1.053c.186.301.318.751.318 1.418h2Zm-.59-2.423a4.324 4.324 0 0 0-1.54-1.631l-1.052 1.7c.354.219.63.511.836.889l1.756-.958Zm-1.54-1.631a5.946 5.946 0 0 0-2.072-.781l-.364 1.966c.539.1.996.275 1.384.515l1.052-1.7Zm-2.037-.774c-.72-.16-1.453-.24-2.197-.24v2c.6 0 1.187.064 1.763.192l.434-1.952Zm-2.197-.24c-.812 0-1.568.024-2.267.074l.142 1.995a30.028 30.028 0 0 1 2.125-.069v-2Zm-2.233.073c-.665.024-1.226.074-1.649.165l.419 1.956c.25-.054.673-.099 1.304-.123l-.074-1.998Zm-2.439 1.143v8.568h2v-8.568h-2Zm1 9.568h1.872v-2h-1.872v2Zm30.563 13.112v1h1v-1h-1Zm-7.992 0h-1v1h1v-1Zm0-.9-.47-.883-.53.283v.6h1Zm1.116-.468.299.954.026-.008.027-.01-.352-.936Zm1.26-.396.255.967.745-.196v-.771h-1Zm0-14.148h1v-.886l-.879-.107-.121.993Zm-2.376-.288h-1v.886l.88.107.12-.993Zm0-.936-.382-.924-.618.255v.669h1Zm2.268-.756.256.967-.256-.967Zm2.448-.54v-1h-.087l-.086.015.173.985Zm.9 0h1v-1h-1v1Zm0 16.668h-1v.781l.758.189.242-.97Zm1.296.396-.351.936.026.01.027.008.298-.954Zm1.08.468h1v-.58l-.503-.288-.497.868Zm-5.688-24.768-.664-.748-.011.01-.01.01.685.728Zm3.348 0 .686-.728-.686.728Zm0 3.096.662.75.012-.011.012-.011-.686-.728Zm-3.348 0-.685.728.022.021.023.019.64-.768Zm5.688 21.572h-7.992v2h7.992v-2Zm-6.992 1v-.9h-2v.9h2Zm-.529-.018c.306-.163.62-.295.944-.396l-.597-1.909a7.55 7.55 0 0 0-1.288.54l.941 1.765Zm.997-.414c.348-.13.735-.252 1.163-.365l-.509-1.934c-.484.127-.937.269-1.357.426l.703 1.873Zm1.908-1.332V117.68h-2v14.148h2Zm-.879-15.141-2.376-.288-.241 1.986 2.376.288.241-1.986Zm-1.497.705v-.936h-2v.936h2Zm-.617-.012c.65-.269 1.363-.508 2.141-.713l-.512-1.934c-.854.226-1.652.492-2.394.799l.765 1.848Zm2.141-.713a28.82 28.82 0 0 1 2.366-.522l-.347-1.97c-.845.149-1.688.335-2.531.558l.512 1.934Zm2.192-.507h.9v-2h-.9v2Zm-.1-1v16.668h2V115.16h-2Zm.758 17.638c.45.113.845.234 1.187.362l.703-1.873a13.04 13.04 0 0 0-1.405-.429l-.485 1.94Zm1.24.38c.318.1.611.227.882.382l.993-1.736a6.441 6.441 0 0 0-1.278-.555l-.597 1.909Zm.378-.486v.9h2v-.9h-2Zm-4.3-23.22c0-.42.122-.655.298-.82l-1.371-1.456c-.641.603-.927 1.399-.927 2.276h2Zm.277-.801c.213-.189.524-.323 1.027-.323v-2c-.888 0-1.705.25-2.356.828l1.329 1.495Zm1.027-.323c.506 0 .791.134.971.304l1.371-1.456c-.636-.599-1.456-.848-2.342-.848v2Zm.971.304c.175.165.297.4.297.82h2c0-.877-.286-1.673-.926-2.276l-1.371 1.456Zm.297.82c0 .419-.122.655-.297.82l1.371 1.456c.64-.603.926-1.4.926-2.276h-2Zm-.273.798c-.179.158-.472.29-.995.29v2c.87 0 1.681-.228 2.318-.79l-1.323-1.5Zm-.995.29c-.519 0-.839-.131-1.051-.308l-1.281 1.536c.652.543 1.46.772 2.332.772v-2Zm-1.006-.268c-.176-.165-.298-.401-.298-.82h-2c0 .876.286 1.673.927 2.276l1.371-1.456Zm19.791 15.2.803-.596-.3-.404h-.503v1Zm-1.656 0v-1h-1v1h1Zm0 8.1v1h1v-1h-1Zm-2.88 0h-1v1h1v-1Zm0-25.2v-1h-1v1h1Zm2.88 0h1v-1h-1v1Zm0 15.336h-1v1.398l1.323-.452-.323-.946Zm1.476-.504.323.946.298-.102.186-.254-.807-.59Zm5.58-7.632v-1h-.508l-.3.41.808.59Zm3.348 0 .795.606 1.222-1.606h-2.017v1Zm-5.508 7.236.627.779.094-.077.074-.096-.795-.606Zm-1.476 1.188-.627-.779-.971.781.973.779.625-.781Zm1.8 1.44.804-.594-.078-.105-.102-.082-.624.781Zm6.012 8.136v1h1.982l-1.178-1.594-.804.594Zm-3.564 0-.803.596.299.404h.504v-1Zm-6.012-9.1h-1.656v2h1.656v-2Zm-2.656 1v8.1h2v-8.1h-2Zm1 7.1h-2.88v2h2.88v-2Zm-1.88 1v-25.2h-2v25.2h2Zm-1-24.2h2.88v-2h-2.88v2Zm1.88-1v15.336h2v-15.336h-2Zm1.323 16.282 1.476-.504-.647-1.893-1.476.504.647 1.893Zm1.96-.86 5.58-7.632-1.615-1.18-5.58 7.632 1.615 1.18Zm4.773-7.222h3.348v-2h-3.348v2Zm2.552-1.606-5.508 7.236 1.591 1.212 5.508-7.236-1.591-1.212Zm-5.339 7.063-1.476 1.188 1.254 1.558 1.476-1.188-1.254-1.558Zm-1.474 2.748 1.8 1.44 1.249-1.562-1.8-1.44-1.249 1.562Zm1.62 1.253 6.012 8.136 1.609-1.188-6.012-8.136-1.609 1.188Zm6.817 6.542h-3.564v2h3.564v-2Zm-2.761.404-6.012-8.1-1.606 1.192 6.012 8.1 1.606-1.192Zm24.713-.844.625.781.64-.512-.377-.729-.888.46Zm-2.736 1.368-.291-.957-.006.002.297.955Zm-7.02-.144-.412.911.009.004.009.004.394-.919Zm-2.484-1.908-.792.611.009.011.783-.622Zm-1.44-2.988-.965.261.965-.261Zm1.584-10.908.762.648-.762-.648Zm8.316-2.124-.229.973.014.003.014.003.201-.979Zm2.196 1.008.614-.79-.614.79Zm1.584 2.16-.917.399.004.009.913-.408Zm.396 6.264v1h.861l.128-.852-.989-.148Zm-11.556 0v-1h-1v1h1Zm.324 2.808-.967.256.967-.256Zm1.008 2.088-.784.621.007.008.006.008.771-.637Zm1.764 1.296-.397.917.018.008.018.007.361-.932Zm5.148 0 .333.943-.333-.943Zm1.836-1.008.888-.46-.608-1.176-.965.908.685.728Zm-8.532-11.268-.652-.758-.011.009.663.749Zm-1.512 3.816-.995-.093-.102 1.093h1.097v-1Zm8.928 0v1h1v-1h-1Zm-1.044-3.816-.73.683.006.006.005.006.719-.695Zm2.616 12.575c-.6.48-1.391.884-2.403 1.192l.582 1.914c1.196-.364 2.229-.872 3.07-1.544l-1.249-1.562Zm-2.409 1.194a10.56 10.56 0 0 1-3.159.459v2c1.317 0 2.57-.181 3.753-.549l-.594-1.91Zm-3.159.459c-1.265 0-2.313-.2-3.17-.567l-.788 1.838c1.159.497 2.487.729 3.958.729v-2Zm-3.152-.559c-.872-.395-1.57-.935-2.113-1.619l-1.566 1.244c.753.948 1.711 1.68 2.855 2.197l.824-1.822Zm-2.104-1.608c-.558-.724-.985-1.598-1.267-2.639l-1.93.523c.342 1.263.876 2.381 1.613 3.338l1.584-1.222Zm-1.267-2.639c-.284-1.051-.433-2.257-.433-3.626h-2c0 1.511.164 2.897.503 4.149l1.93-.523Zm-.433-3.626c0-2.94.657-5.012 1.814-6.372l-1.523-1.296c-1.579 1.855-2.291 4.464-2.291 7.668h2Zm1.814-6.372c1.139-1.339 2.789-2.06 5.106-2.06v-2c-2.771 0-5.032.887-6.629 2.764l1.523 1.296Zm5.106-2.06c.737 0 1.476.086 2.219.261l.458-1.947a11.666 11.666 0 0 0-2.677-.314v2Zm2.247.267c.668.138 1.258.41 1.783.818l1.228-1.579a6.266 6.266 0 0 0-2.608-1.198l-.403 1.959Zm1.783.818c.488.379.924.951 1.282 1.77l1.833-.799c-.459-1.052-1.079-1.921-1.887-2.55l-1.228 1.579Zm1.285 1.779c.329.735.525 1.791.525 3.228h2c0-1.587-.212-2.955-.699-4.045l-1.826.817Zm.525 3.228c0 .733-.067 1.558-.205 2.479l1.978.297c.15-.998.227-1.925.227-2.776h-2Zm.784 1.628h-11.556v2h11.556v-2Zm-12.556 1c0 1.122.115 2.146.357 3.064l1.934-.512c-.189-.715-.291-1.562-.291-2.552h-2Zm.357 3.064c.246.929.638 1.754 1.191 2.453l1.568-1.242c-.359-.453-.639-1.02-.825-1.723l-1.934.512Zm1.204 2.469c.566.685 1.287 1.208 2.138 1.576l.795-1.835c-.589-.255-1.045-.596-1.391-1.015l-1.542 1.274Zm2.174 1.591c.89.345 1.919.5 3.061.5v-2c-.97 0-1.741-.133-2.339-.365l-.722 1.865Zm3.061.5c.936 0 1.865-.166 2.781-.489l-.666-1.886a6.325 6.325 0 0 1-2.115.375v2Zm2.781-.489c.883-.312 1.639-.706 2.189-1.223l-1.371-1.456c-.267.251-.735.528-1.484.793l.666 1.886Zm.615-1.492 1.08 2.088 1.776-.919-1.08-2.088-1.776.919ZM245.6 116.68c-1.595 0-2.986.423-4.072 1.358l1.305 1.516c.641-.553 1.531-.874 2.767-.874v-2Zm-4.083 1.367c-1.117.99-1.667 2.566-1.844 4.472l1.991.186c.158-1.694.617-2.662 1.179-3.161l-1.326-1.497Zm-.849 5.565h8.928v-2h-8.928v2Zm9.928-1c0-1.891-.349-3.501-1.325-4.511l-1.438 1.39c.416.43.763 1.364.763 3.121h2Zm-1.314-4.499c-.93-.994-2.206-1.433-3.682-1.433v2c1.069 0 1.76.305 2.222.799l1.46-1.366Z"/>
        </g>
        <g class="PAR">
          <path fill="#fff" d="M261.869 105.851c1.014-.24 2.107-.4 3.28-.48a51.18 51.18 0 0 1 3.48-.12c1.227 0 2.467.12 3.72.36 1.28.24 2.44.68 3.48 1.32s1.88 1.52 2.52 2.64c.667 1.12 1 2.547 1 4.28 0 1.707-.306 3.147-.92 4.32-.613 1.174-1.426 2.134-2.44 2.88-1.013.72-2.173 1.24-3.48 1.56-1.306.32-2.653.48-4.04.48h-1.64l-.96-.08a6.6 6.6 0 0 1-.68-.08v10.64h-3.32v-27.72Zm6.84 2.28c-.693 0-1.36.014-2 .04-.64.027-1.146.094-1.52.2v11.6c.134.054.347.094.64.12.294 0 .6.014.92.04h1.56c.907 0 1.8-.08 2.68-.24a7.266 7.266 0 0 0 2.44-.96c.72-.453 1.294-1.093 1.72-1.92.454-.826.68-1.88.68-3.16 0-1.093-.213-2-.64-2.72a4.54 4.54 0 0 0-1.64-1.76 6.47 6.47 0 0 0-2.28-.96 11.983 11.983 0 0 0-2.56-.28Zm30.085 17.68h-10.32l-2.8 7.76h-3.28l10.6-28.44h1.52l10.64 28.44h-3.48l-2.88-7.76Zm-9.24-2.88h8.24l-3.12-8.52-1-4.24h-.04l-1 4.32-3.08 8.44Zm23.119-17.08a35.478 35.478 0 0 1 3.48-.44 46.285 46.285 0 0 1 3.64-.16c1.226 0 2.386.134 3.48.4 1.12.267 2.093.707 2.92 1.32a6.648 6.648 0 0 1 2.04 2.4c.506.987.76 2.187.76 3.6 0 2.187-.6 3.96-1.8 5.32-1.2 1.36-2.72 2.267-4.56 2.72l1.92 1.48 6.96 11.08h-3.88l-7.72-12.08-3.92-.6v12.68h-3.32v-27.72Zm7.2 2.28h-1.08c-.374 0-.734.014-1.08.04l-1 .08a4.055 4.055 0 0 0-.72.12v10.32h3.12c1.84 0 3.36-.453 4.56-1.36 1.2-.906 1.8-2.32 1.8-4.24 0-1.44-.494-2.626-1.48-3.56-.987-.933-2.36-1.4-4.12-1.4Z"/>
          <path fill="#fff" d="m261.869 105.851-.23-.973-.77.183v.79h1Zm3.28-.48-.068-.997.068.997Zm7.2.24-.188.983h.004l.184-.983Zm3.48 1.32-.524.852.524-.852Zm2.52 2.64-.868.497.005.007.004.008.859-.512Zm.08 8.6.887.464-.887-.464Zm-2.44 2.88.58.816.007-.005.007-.006-.594-.805Zm-9.16 2.04-.083.997.042.003h.041v-1Zm-.96-.08-.083.997.083-.997Zm-.68-.08.197-.98-1.197-.239v1.219h1Zm0 10.64v1h1v-1h-1Zm-3.32 0h-1v1h1v-1Zm4.84-25.4-.041-.999.041.999Zm-1.52.2-.274-.961-.726.207v.754h1Zm0 11.6h-1v.677l.629.252.371-.929Zm.64.12-.09.996.045.004h.045v-1Zm.92.04-.083.997.042.003h.041v-1Zm4.24-.24.179.984.012-.002.011-.002-.202-.98Zm2.44-.96-.532-.846.532.846Zm1.72-1.92-.876-.48-.006.011-.006.011.888.458Zm.04-5.88-.881.473.01.019.011.018.86-.51Zm-1.64-1.76-.562.827.019.013.019.012.524-.852Zm-2.28-.96-.213.977.213-.977Zm-9.169-1.586a19.204 19.204 0 0 1 3.117-.456l-.136-1.995a21.18 21.18 0 0 0-3.442.504l.461 1.947Zm3.117-.456a50.502 50.502 0 0 1 3.412-.118v-2c-1.17 0-2.352.041-3.548.123l.136 1.995Zm3.412-.118c1.161 0 2.338.114 3.532.343l.376-1.965a20.764 20.764 0 0 0-3.908-.378v2Zm3.536.343a9.134 9.134 0 0 1 3.14 1.189l1.048-1.703a11.123 11.123 0 0 0-3.819-1.451l-.369 1.965Zm3.14 1.189c.89.547 1.614 1.302 2.176 2.285l1.737-.993c-.719-1.257-1.674-2.262-2.865-2.995l-1.048 1.703Zm2.185 2.3c.549.922.859 2.158.859 3.768h2c0-1.855-.356-3.473-1.14-4.791l-1.719 1.023Zm.859 3.768c0 1.591-.286 2.862-.806 3.857l1.773.927c.706-1.352 1.033-2.961 1.033-4.784h-2Zm-.806 3.857c-.546 1.046-1.262 1.887-2.147 2.538l1.187 1.61c1.142-.841 2.053-1.92 2.733-3.221l-1.773-.927Zm-2.133 2.528c-.902.641-1.944 1.112-3.138 1.404l.475 1.943c1.419-.348 2.697-.917 3.822-1.716l-1.159-1.631Zm-3.138 1.404c-1.227.3-2.494.451-3.803.451v2c1.465 0 2.891-.169 4.278-.508l-.475-1.943Zm-3.803.451h-.68v2h.68v-2Zm-.68 0h-.96v2h.96v-2Zm-.877.004-.96-.08-.166 1.993.96.08.166-1.993Zm-.96-.08a6.468 6.468 0 0 1-.566-.064l-.393 1.961c.195.039.472.069.793.096l.166-1.993Zm-1.763.916v10.64h2v-10.64h-2Zm1 9.64h-3.32v2h3.32v-2Zm-2.32 1v-27.72h-2v27.72h2Zm5.84-26.44c-.706 0-1.386.014-2.041.041l.083 1.999c.625-.026 1.278-.04 1.958-.04v-2Zm-2.041.041c-.675.028-1.271.1-1.753.238l.549 1.923c.264-.076.682-.137 1.287-.162l-.083-1.999Zm-2.479 1.199v11.6h2v-11.6h-2Zm.629 12.529c.275.11.61.159.921.187l.181-1.991a3.579 3.579 0 0 1-.286-.037c-.072-.014-.089-.022-.073-.016l-.743 1.857Zm1.011.191c.264 0 .542.012.837.037l.166-1.993a11.98 11.98 0 0 0-1.003-.044v2Zm.92.04h.92v-2h-.92v2Zm.92 0h.64v-2h-.64v2Zm.64 0c.966 0 1.919-.085 2.859-.256l-.357-1.967c-.821.149-1.654.223-2.502.223v2Zm2.882-.26a8.312 8.312 0 0 0 2.771-1.093l-1.065-1.693c-.61.384-1.31.662-2.109.827l.403 1.959Zm2.771-1.093c.885-.558 1.575-1.338 2.076-2.308l-1.777-.917c-.353.683-.809 1.183-1.364 1.532l1.065 1.693Zm2.064-2.286c.558-1.017.803-2.25.803-3.641h-2c0 1.17-.208 2.044-.556 2.68l1.753.961Zm.803-3.641c0-1.219-.237-2.315-.779-3.229l-1.721 1.019c.311.526.5 1.243.5 2.21h2Zm-.758-3.192a5.53 5.53 0 0 0-1.998-2.139l-1.048 1.703c.537.33.963.783 1.283 1.381l1.763-.945Zm-1.959-2.114a7.454 7.454 0 0 0-2.629-1.11l-.427 1.953a5.483 5.483 0 0 1 1.931.81l1.125-1.653Zm-2.629-1.11a12.93 12.93 0 0 0-2.774-.304v2c.78 0 1.562.086 2.347.257l.427-1.953Zm27.311 18.376.938-.348-.242-.652h-.696v1Zm-10.32 0v-1h-.702l-.239.661.941.339Zm-2.8 7.76v1h.702l.239-.66-.941-.34Zm-3.28 0-.937-.349-.503 1.349h1.44v-1Zm10.6-28.44v-1h-.694l-.243.651.937.349Zm1.52 0 .937-.35-.243-.65h-.694v1Zm10.64 28.44v1h1.442l-.505-1.35-.937.35Zm-3.48 0-.937.348.242.652h.695v-1Zm-12.12-10.64-.939-.342-.49 1.342h1.429v-1Zm8.24 0v1h1.431l-.492-1.343-.939.343Zm-3.12-8.52-.973.23.014.058.02.056.939-.344Zm-1-4.24.973-.229-.181-.771h-.792v1Zm-.04 0v-1h-.795l-.179.775.974.225Zm-1 4.32.939.343.021-.057.014-.06-.974-.226Zm6.16 10.32h-10.32v2h10.32v-2Zm-11.261.661-2.8 7.76 1.882.679 2.8-7.76-1.882-.679Zm-1.859 7.099h-3.28v2h3.28v-2Zm-2.343 1.35 10.6-28.44-1.874-.699-10.6 28.44 1.874.699Zm9.663-27.79h1.52v-2h-1.52v2Zm.583-.649 10.64 28.44 1.874-.701-10.64-28.44-1.874.701Zm11.577 27.089h-3.48v2h3.48v-2Zm-2.542.652-2.88-7.76-1.875.696 2.88 7.76 1.875-.696Zm-13.058-9.292h8.24v-2h-8.24v2Zm9.179-1.343-3.12-8.52-1.878.687 3.12 8.52 1.878-.687Zm-3.086-8.406-1-4.24-1.946.459 1 4.24 1.946-.459Zm-1.973-5.011h-.04v2h.04v-2Zm-1.014.775-1 4.32 1.948.451 1-4.32-1.948-.451Zm-.965 4.203-3.08 8.44 1.878.685 3.08-8.44-1.878-.685Zm20.978-8.298-.182-.983-.818.151v.832h1Zm3.48-.44-.08-.996h-.002l.082.996Zm7.12.24-.237.972.005.001.232-.973Zm2.92 1.32-.596.804.006.004.006.004.584-.812Zm2.04 2.4.889-.456-.889.456Zm-1.04 8.92-.75-.661.75.661Zm-4.56 2.72-.24-.971-2.014.497 1.643 1.266.611-.792Zm1.92 1.48.846-.531-.095-.152-.141-.109-.61.792Zm6.96 11.08v1h1.809l-.963-1.531-.846.531Zm-3.88 0-.843.539.295.461h.548v-1Zm-7.72-12.08.842-.538-.244-.382-.447-.068-.151.988Zm-3.92-.6.151-.988-1.151-.176v1.164h1Zm0 12.68v1h1v-1h-1Zm-3.32 0h-1v1h1v-1Zm5.04-25.4-.077-.997.077.997Zm-1 .08-.084-.996-.007.001.091.995Zm-.72.12-.275-.961-.725.207v.754h1Zm0 10.32h-1v1h1v-1Zm7.68-1.36-.603-.797.603.797Zm.32-7.8-.688.727.688-.727Zm-11.139-2.696a34.373 34.373 0 0 1 3.38-.427l-.163-1.993a36.057 36.057 0 0 0-3.58.453l.363 1.967Zm3.378-.427a45.017 45.017 0 0 1 3.561-.157v-2a46.67 46.67 0 0 0-3.72.164l.159 1.993Zm3.561-.157c1.153 0 2.233.126 3.243.372l.473-1.943a15.646 15.646 0 0 0-3.716-.429v2Zm3.248.373c1.004.239 1.85.627 2.556 1.151l1.191-1.607c-.947-.703-2.048-1.195-3.284-1.489l-.463 1.945Zm2.568 1.159a5.641 5.641 0 0 1 1.734 2.045l1.779-.913c-.575-1.12-1.357-2.045-2.346-2.756l-1.167 1.624Zm1.734 2.045c.417.812.65 1.847.65 3.143h2c0-1.529-.275-2.895-.871-4.056l-1.779.913Zm.65 3.143c0 1.996-.543 3.517-1.55 4.659l1.499 1.323c1.393-1.579 2.051-3.604 2.051-5.982h-2Zm-1.55 4.659c-1.059 1.2-2.398 2.004-4.05 2.41l.479 1.942c2.028-.499 3.729-1.509 5.07-3.029l-1.499-1.323Zm-4.421 4.173 1.92 1.48 1.221-1.584-1.92-1.48-1.221 1.584Zm1.684 1.22 6.96 11.08 1.693-1.063-6.96-11.08-1.693 1.063Zm7.807 9.548h-3.88v2h3.88v-2Zm-3.038.462-7.72-12.08-1.685 1.077 7.72 12.08 1.685-1.077Zm-8.411-12.53-3.92-.6-.303 1.977 3.92.6.303-1.977Zm-5.071.388v12.68h2v-12.68h-2Zm1 11.68h-3.32v2h3.32v-2Zm-2.32 1v-27.72h-2v27.72h2Zm6.2-26.44h-1.08v2h1.08v-2Zm-1.08 0c-.398 0-.783.015-1.157.043l.153 1.994c.32-.024.654-.037 1.004-.037v-2Zm-1.157.043c-.349.027-.684.054-1.007.081l.167 1.993.993-.08-.153-1.994Zm-1.014.082a4.915 4.915 0 0 0-.904.154l.549 1.923c.104-.03.277-.062.536-.086l-.181-1.991Zm-1.629 1.115v10.32h2v-10.32h-2Zm1 11.32h3.12v-2h-3.12v2Zm3.12 0c2.007 0 3.753-.497 5.162-1.562l-1.205-1.595c-.991.748-2.285 1.157-3.957 1.157v2Zm5.162-1.562c1.518-1.146 2.198-2.899 2.198-5.038h-2c0 1.702-.521 2.776-1.403 3.443l1.205 1.595Zm2.198-5.038c0-1.696-.594-3.151-1.793-4.286l-1.375 1.453c.774.732 1.168 1.65 1.168 2.833h2Zm-1.793-4.286c-1.223-1.156-2.87-1.674-4.807-1.674v2c1.582 0 2.681.416 3.432 1.127l1.375-1.453Z"/>
        </g>
        <g class="k">
          <path fill="#fff" d="M354.577 120.611h1.88v12.96h3.32v-28h-3.32v13.04l-1.8-.56-9.4-12.48h-3.84l9.36 12.04 1.68 1.32-2.04 1.6-10.24 13.04h4.2l10.2-12.96Z"/>
          <path fill="#fff" d="m354.577 120.611-.786-.618.3-.382h.486v1Zm1.88 0v-1h1v1h-1Zm0 12.96v1h-1v-1h1Zm3.32 0h1v1h-1v-1Zm0-28v-1h1v1h-1Zm-3.32 0h-1v-1h1v1Zm0 13.04h1v1.359l-1.297-.404.297-.955Zm-1.8-.56-.297.955-.308-.095-.194-.258.799-.602Zm-9.4-12.48v-1h.499l.3.399-.799.601Zm-3.84 0-.79.614-1.254-1.614h2.044v1Zm9.36 12.04-.618.787-.096-.076-.076-.097.79-.614Zm1.68 1.32.618-.786 1.001.787-1.002.786-.617-.787Zm-2.04 1.6-.787-.617.075-.095.095-.074.617.786Zm-10.24 13.04v1h-2.057l1.27-1.617.787.617Zm4.2 0 .786.619-.301.381h-.485v-1Zm10.2-13.96h1.88v2h-1.88v-2Zm2.88 1v12.96h-2v-12.96h2Zm-1 11.96h3.32v2h-3.32v-2Zm2.32 1v-28h2v28h-2Zm1-27h-3.32v-2h3.32v2Zm-2.32-1v13.04h-2v-13.04h2Zm-1.297 13.995-1.8-.56.594-1.909 1.8.56-.594 1.909Zm-2.302-.913-9.4-12.48 1.598-1.203 9.4 12.48-1.598 1.203Zm-8.601-12.082h-3.84v-2h3.84v2Zm-3.051-1.613 9.36 12.04-1.579 1.227-9.36-12.04 1.579-1.227Zm9.189 11.867 1.68 1.32-1.236 1.573-1.68-1.32 1.236-1.573Zm1.679 2.893-2.04 1.6-1.234-1.573 2.04-1.6 1.234 1.573Zm-1.871 1.431-10.24 13.04-1.573-1.235 10.24-13.04 1.573 1.235Zm-11.026 11.422h4.2v2h-4.2v-2Zm3.414.382 10.2-12.96 1.572 1.237-10.2 12.96-1.572-1.237Z"/>
        </g>
      </g>
    </g>
  </g>
  <defs>
    <filter id="a" width="284.422" height="85.554" x="25.898" y="8.5" class="a" color-interpolation-filters="sRGB" filterUnits="userSpaceOnUse">
      <feFlood flood-opacity="0" result="BackgroundImageFix"/>
      <feBlend in="SourceGraphic" in2="BackgroundImageFix" result="shape"/>
      <feColorMatrix in="SourceAlpha" result="hardAlpha" values="0 0 0 0 0 0 0 0 0 0 0 0 0 0 0 0 0 0 127 0"/>
      <feOffset dy="4"/>
      <feGaussianBlur stdDeviation="3.5"/>
      <feComposite in2="hardAlpha" k2="-1" k3="1" operator="arithmetic"/>
      <feColorMatrix values="0 0 0 0 0.160521 0 0 0 0 0.8375 0 0 0 0 0.47193 0 0 0 0.38 0"/>
      <feBlend in2="shape" result="effect1_innerShadow_16_2"/>
      <feColorMatrix in="SourceAlpha" result="hardAlpha" values="0 0 0 0 0 0 0 0 0 0 0 0 0 0 0 0 0 0 127 0"/>
      <feOffset dy="4"/>
      <feGaussianBlur stdDeviation="2"/>
      <feComposite in2="hardAlpha" k2="-1" k3="1" operator="arithmetic"/>
      <feColorMatrix values="0 0 0 0 0.0175833 0 0 0 0 0.1 0 0 0 0 0.0104167 0 0 0 0.25 0"/>
      <feBlend in2="effect1_innerShadow_16_2" result="effect2_innerShadow_16_2"/>
    </filter>
  </defs>
</svg>
